  0
SECTION
  2
HEADER
  9
$ACADVER
  1
AC1009
  9
$EXTMIN
 10
0.0
 20
0.0
 30
0.0
  9
$EXTMAX
 10
1000.0
 20
1000.0
 30
0.0
  9
$FILLMODE
 70
 0
  9
$SPLFRAME
 70
 1
  0
ENDSEC
  0
SECTION
  2
TABLES
  0
TABLE
  2
LAYER
 70
1
  0
LAYER
  2
0
 70
     0
 62
     7
  6
CONTINUOUS
  0
ENDTAB
  0
ENDSEC
  0
SECTION
  2
ENTITIES
  0
LINE
  8
0
 62
     0
 10
157.395
 20
73.1464
 30
0.0
 11
157.025
 21
72.9851
 31
0.0
  0
LINE
  8
0
 62
     0
 10
157.025
 20
72.9851
 30
0.0
 11
155.698
 21
72.989
 31
0.0
  0
LINE
  8
0
 62
     0
 10
155.698
 20
72.989
 30
0.0
 11
154.066
 21
73.9193
 31
0.0
  0
LINE
  8
0
 62
     0
 10
154.066
 20
73.9193
 30
0.0
 11
152.524
 21
75.7837
 31
0.0
  0
LINE
  8
0
 62
     0
 10
152.524
 20
75.7837
 30
0.0
 11
151.098
 21
78.4281
 31
0.0
  0
LINE
  8
0
 62
     0
 10
151.098
 20
78.4281
 30
0.0
 11
149.809
 21
81.6998
 31
0.0
  0
LINE
  8
0
 62
     0
 10
149.809
 20
81.6998
 30
0.0
 11
148.688
 21
85.4467
 31
0.0
  0
LINE
  8
0
 62
     0
 10
148.688
 20
85.4467
 30
0.0
 11
147.756
 21
89.5117
 31
0.0
  0
LINE
  8
0
 62
     0
 10
147.756
 20
89.5117
 30
0.0
 11
147.038
 21
93.7426
 31
0.0
  0
LINE
  8
0
 62
     0
 10
147.038
 20
93.7426
 30
0.0
 11
146.558
 21
97.9868
 31
0.0
  0
LINE
  8
0
 62
     0
 10
146.558
 20
97.9868
 30
0.0
 11
146.348
 21
102.088
 31
0.0
  0
LINE
  8
0
 62
     0
 10
146.348
 20
102.088
 30
0.0
 11
146.422
 21
105.894
 31
0.0
  0
LINE
  8
0
 62
     0
 10
146.422
 20
105.894
 30
0.0
 11
146.813
 21
109.252
 31
0.0
  0
LINE
  8
0
 62
     0
 10
146.813
 20
109.252
 30
0.0
 11
147.544
 21
112.007
 31
0.0
  0
LINE
  8
0
 62
     0
 10
147.544
 20
112.007
 30
0.0
 11
148.641
 21
114.005
 31
0.0
  0
LINE
  8
0
 62
     0
 10
148.641
 20
114.005
 30
0.0
 11
150.125
 21
115.094
 31
0.0
  0
LINE
  8
0
 62
     0
 10
150.125
 20
115.094
 30
0.0
 11
151.582
 21
115.234
 31
0.0
  0
LINE
  8
0
 62
     0
 10
151.582
 20
115.234
 30
0.0
 11
152.025
 21
115.117
 31
0.0
  0
LINE
  8
0
 62
     0
 10
152.025
 20
115.117
 30
0.0
 11
152.867
 21
114.643
 31
0.0
  0
LINE
  8
0
 62
     0
 10
152.867
 20
114.643
 30
0.0
 11
155.279
 21
112.999
 31
0.0
  0
LINE
  8
0
 62
     0
 10
155.279
 20
112.999
 30
0.0
 11
158.043
 21
110.619
 31
0.0
  0
LINE
  8
0
 62
     0
 10
158.043
 20
110.619
 30
0.0
 11
160.335
 21
108.02
 31
0.0
  0
LINE
  8
0
 62
     0
 10
160.335
 20
108.02
 30
0.0
 11
162.177
 21
105.242
 31
0.0
  0
LINE
  8
0
 62
     0
 10
162.177
 20
105.242
 30
0.0
 11
163.595
 21
102.329
 31
0.0
  0
LINE
  8
0
 62
     0
 10
163.595
 20
102.329
 30
0.0
 11
164.609
 21
99.3207
 31
0.0
  0
LINE
  8
0
 62
     0
 10
164.609
 20
99.3207
 30
0.0
 11
165.24
 21
96.2586
 31
0.0
  0
LINE
  8
0
 62
     0
 10
165.24
 20
96.2586
 30
0.0
 11
165.513
 21
93.1831
 31
0.0
  0
LINE
  8
0
 62
     0
 10
165.513
 20
93.1831
 30
0.0
 11
165.447
 21
90.1404
 31
0.0
  0
LINE
  8
0
 62
     0
 10
165.447
 20
90.1404
 30
0.0
 11
165.065
 21
87.1664
 31
0.0
  0
LINE
  8
0
 62
     0
 10
165.065
 20
87.1664
 30
0.0
 11
164.392
 21
84.3068
 31
0.0
  0
LINE
  8
0
 62
     0
 10
164.392
 20
84.3068
 30
0.0
 11
163.445
 21
81.6007
 31
0.0
  0
LINE
  8
0
 62
     0
 10
163.445
 20
81.6007
 30
0.0
 11
162.25
 21
79.0885
 31
0.0
  0
LINE
  8
0
 62
     0
 10
162.25
 20
79.0885
 30
0.0
 11
160.83
 21
76.816
 31
0.0
  0
LINE
  8
0
 62
     0
 10
160.83
 20
76.816
 30
0.0
 11
159.203
 21
74.822
 31
0.0
  0
LINE
  8
0
 62
     0
 10
159.203
 20
74.822
 30
0.0
 11
157.876
 21
73.5281
 31
0.0
  0
LINE
  8
0
 62
     0
 10
157.876
 20
73.5281
 30
0.0
 11
157.395
 21
73.1464
 31
0.0
  0
LINE
  8
0
 62
     0
 10
147.638
 20
41.9156
 30
0.0
 11
146.688
 21
40.6206
 31
0.0
  0
LINE
  8
0
 62
     0
 10
146.688
 20
40.6206
 30
0.0
 11
143.436
 21
37.0293
 31
0.0
  0
LINE
  8
0
 62
     0
 10
143.436
 20
37.0293
 30
0.0
 11
139.03
 21
33.3609
 31
0.0
  0
LINE
  8
0
 62
     0
 10
139.03
 20
33.3609
 30
0.0
 11
134.57
 21
30.7978
 31
0.0
  0
LINE
  8
0
 62
     0
 10
134.57
 20
30.7978
 30
0.0
 11
130.21
 21
29.231
 31
0.0
  0
LINE
  8
0
 62
     0
 10
130.21
 20
29.231
 30
0.0
 11
126.097
 21
28.5488
 31
0.0
  0
LINE
  8
0
 62
     0
 10
126.097
 20
28.5488
 30
0.0
 11
122.391
 21
28.6398
 31
0.0
  0
LINE
  8
0
 62
     0
 10
122.391
 20
28.6398
 30
0.0
 11
119.237
 21
29.3922
 31
0.0
  0
LINE
  8
0
 62
     0
 10
119.237
 20
29.3922
 30
0.0
 11
117.34
 21
30.2824
 31
0.0
  0
LINE
  8
0
 62
     0
 10
117.34
 20
30.2824
 30
0.0
 11
116.794
 21
30.6958
 31
0.0
  0
LINE
  8
0
 62
     0
 10
116.794
 20
30.6958
 30
0.0
 11
116.26
 21
31.1919
 31
0.0
  0
LINE
  8
0
 62
     0
 10
116.26
 20
31.1919
 30
0.0
 11
115.116
 21
33.1666
 31
0.0
  0
LINE
  8
0
 62
     0
 10
115.116
 20
33.1666
 30
0.0
 11
114.303
 21
36.4628
 31
0.0
  0
LINE
  8
0
 62
     0
 10
114.303
 20
36.4628
 30
0.0
 11
114.277
 21
40.367
 31
0.0
  0
LINE
  8
0
 62
     0
 10
114.277
 20
40.367
 30
0.0
 11
114.96
 21
44.6648
 31
0.0
  0
LINE
  8
0
 62
     0
 10
114.96
 20
44.6648
 30
0.0
 11
116.276
 21
49.1367
 31
0.0
  0
LINE
  8
0
 62
     0
 10
116.276
 20
49.1367
 30
0.0
 11
118.149
 21
53.5644
 31
0.0
  0
LINE
  8
0
 62
     0
 10
118.149
 20
53.5644
 30
0.0
 11
120.496
 21
57.7328
 31
0.0
  0
LINE
  8
0
 62
     0
 10
120.496
 20
57.7328
 30
0.0
 11
122.496
 21
60.5536
 31
0.0
  0
LINE
  8
0
 62
     0
 10
122.496
 20
60.5536
 30
0.0
 11
123.248
 21
61.4204
 31
0.0
  0
LINE
  8
0
 62
     0
 10
123.248
 20
61.4204
 30
0.0
 11
123.248
 21
61.4232
 31
0.0
  0
LINE
  8
0
 62
     0
 10
123.248
 20
61.4232
 30
0.0
 11
124.066
 21
62.3327
 31
0.0
  0
LINE
  8
0
 62
     0
 10
124.066
 20
62.3327
 30
0.0
 11
126.618
 21
64.9718
 31
0.0
  0
LINE
  8
0
 62
     0
 10
126.618
 20
64.9718
 30
0.0
 11
130.006
 21
68.1013
 31
0.0
  0
LINE
  8
0
 62
     0
 10
130.006
 20
68.1013
 30
0.0
 11
133.367
 21
70.7182
 31
0.0
  0
LINE
  8
0
 62
     0
 10
133.367
 20
70.7182
 30
0.0
 11
136.663
 21
72.7258
 31
0.0
  0
LINE
  8
0
 62
     0
 10
136.663
 20
72.7258
 30
0.0
 11
139.853
 21
74.0311
 31
0.0
  0
LINE
  8
0
 62
     0
 10
139.853
 20
74.0311
 30
0.0
 11
142.894
 21
74.5381
 31
0.0
  0
LINE
  8
0
 62
     0
 10
142.894
 20
74.5381
 30
0.0
 11
145.747
 21
74.1507
 31
0.0
  0
LINE
  8
0
 62
     0
 10
145.747
 20
74.1507
 30
0.0
 11
147.791
 21
73.218
 31
0.0
  0
LINE
  8
0
 62
     0
 10
147.791
 20
73.218
 30
0.0
 11
148.371
 21
72.7756
 31
0.0
  0
LINE
  8
0
 62
     0
 10
148.371
 20
72.7756
 30
0.0
 11
148.845
 21
72.3124
 31
0.0
  0
LINE
  8
0
 62
     0
 10
148.845
 20
72.3124
 30
0.0
 11
149.947
 21
70.5954
 31
0.0
  0
LINE
  8
0
 62
     0
 10
149.947
 20
70.5954
 30
0.0
 11
151.246
 21
67.4934
 31
0.0
  0
LINE
  8
0
 62
     0
 10
151.246
 20
67.4934
 30
0.0
 11
152.171
 21
63.6944
 31
0.0
  0
LINE
  8
0
 62
     0
 10
152.171
 20
63.6944
 30
0.0
 11
152.619
 21
59.4155
 31
0.0
  0
LINE
  8
0
 62
     0
 10
152.619
 20
59.4155
 30
0.0
 11
152.491
 21
54.8778
 31
0.0
  0
LINE
  8
0
 62
     0
 10
152.491
 20
54.8778
 30
0.0
 11
151.686
 21
50.3026
 31
0.0
  0
LINE
  8
0
 62
     0
 10
151.686
 20
50.3026
 30
0.0
 11
150.101
 21
45.9094
 31
0.0
  0
LINE
  8
0
 62
     0
 10
150.101
 20
45.9094
 30
0.0
 11
148.36
 21
42.8293
 31
0.0
  0
LINE
  8
0
 62
     0
 10
148.36
 20
42.8293
 30
0.0
 11
147.638
 21
41.9156
 31
0.0
  0
LINE
  8
0
 62
     0
 10
112.558
 20
60.1528
 30
0.0
 11
112.564
 21
58.9993
 31
0.0
  0
LINE
  8
0
 62
     0
 10
112.564
 20
58.9993
 30
0.0
 11
112.072
 21
55.5322
 31
0.0
  0
LINE
  8
0
 62
     0
 10
112.072
 20
55.5322
 30
0.0
 11
110.628
 21
51.2258
 31
0.0
  0
LINE
  8
0
 62
     0
 10
110.628
 20
51.2258
 30
0.0
 11
108.325
 21
47.3234
 31
0.0
  0
LINE
  8
0
 62
     0
 10
108.325
 20
47.3234
 30
0.0
 11
105.266
 21
43.918
 31
0.0
  0
LINE
  8
0
 62
     0
 10
105.266
 20
43.918
 30
0.0
 11
101.55
 21
41.1014
 31
0.0
  0
LINE
  8
0
 62
     0
 10
101.55
 20
41.1014
 30
0.0
 11
97.2813
 21
38.9682
 31
0.0
  0
LINE
  8
0
 62
     0
 10
97.2813
 20
38.9682
 30
0.0
 11
92.5558
 21
37.6107
 31
0.0
  0
LINE
  8
0
 62
     0
 10
92.5558
 20
37.6107
 30
0.0
 11
88.7469
 21
37.127
 31
0.0
  0
LINE
  8
0
 62
     0
 10
88.7469
 20
37.127
 30
0.0
 11
87.4794
 21
37.1203
 31
0.0
  0
LINE
  8
0
 62
     0
 10
87.4794
 20
37.1203
 30
0.0
 11
86.2072
 21
37.1147
 31
0.0
  0
LINE
  8
0
 62
     0
 10
86.2072
 20
37.1147
 30
0.0
 11
82.3944
 21
37.5613
 31
0.0
  0
LINE
  8
0
 62
     0
 10
82.3944
 20
37.5613
 30
0.0
 11
77.6538
 21
38.8743
 31
0.0
  0
LINE
  8
0
 62
     0
 10
77.6538
 20
38.8743
 30
0.0
 11
73.3584
 21
40.9649
 31
0.0
  0
LINE
  8
0
 62
     0
 10
73.3584
 20
40.9649
 30
0.0
 11
69.6101
 21
43.7459
 31
0.0
  0
LINE
  8
0
 62
     0
 10
69.6101
 20
43.7459
 30
0.0
 11
66.5124
 21
47.1219
 31
0.0
  0
LINE
  8
0
 62
     0
 10
66.5124
 20
47.1219
 30
0.0
 11
64.1657
 21
51.0025
 31
0.0
  0
LINE
  8
0
 62
     0
 10
64.1657
 20
51.0025
 30
0.0
 11
62.6717
 21
55.2965
 31
0.0
  0
LINE
  8
0
 62
     0
 10
62.6717
 20
55.2965
 30
0.0
 11
62.1386
 21
58.7583
 31
0.0
  0
LINE
  8
0
 62
     0
 10
62.1386
 20
58.7583
 30
0.0
 11
62.133
 21
59.9115
 31
0.0
  0
LINE
  8
0
 62
     0
 10
62.133
 20
59.9115
 30
0.0
 11
62.133
 21
59.9722
 31
0.0
  0
LINE
  8
0
 62
     0
 10
62.133
 20
59.9722
 30
0.0
 11
62.133
 21
60.1087
 31
0.0
  0
LINE
  8
0
 62
     0
 10
62.133
 20
60.1087
 30
0.0
 11
62.133
 21
60.1528
 31
0.0
  0
LINE
  8
0
 62
     0
 10
62.133
 20
60.1528
 30
0.0
 11
62.1259
 21
61.3075
 31
0.0
  0
LINE
  8
0
 62
     0
 10
62.1259
 20
61.3075
 30
0.0
 11
62.6166
 21
64.7732
 31
0.0
  0
LINE
  8
0
 62
     0
 10
62.6166
 20
64.7732
 30
0.0
 11
64.0623
 21
69.0809
 31
0.0
  0
LINE
  8
0
 62
     0
 10
64.0623
 20
69.0809
 30
0.0
 11
66.3635
 21
72.9851
 31
0.0
  0
LINE
  8
0
 62
     0
 10
66.3635
 20
72.9851
 30
0.0
 11
69.4228
 21
76.3901
 31
0.0
  0
LINE
  8
0
 62
     0
 10
69.4228
 20
76.3901
 30
0.0
 11
73.1379
 21
79.2057
 31
0.0
  0
LINE
  8
0
 62
     0
 10
73.1379
 20
79.2057
 30
0.0
 11
77.4086
 21
81.3386
 31
0.0
  0
LINE
  8
0
 62
     0
 10
77.4086
 20
81.3386
 30
0.0
 11
82.1337
 21
82.6961
 31
0.0
  0
LINE
  8
0
 62
     0
 10
82.1337
 20
82.6961
 30
0.0
 11
85.9427
 21
83.1783
 31
0.0
  0
LINE
  8
0
 62
     0
 10
85.9427
 20
83.1783
 30
0.0
 11
87.2134
 21
83.1854
 31
0.0
  0
LINE
  8
0
 62
     0
 10
87.2134
 20
83.1854
 30
0.0
 11
88.4823
 21
83.1906
 31
0.0
  0
LINE
  8
0
 62
     0
 10
88.4823
 20
83.1906
 30
0.0
 11
92.2955
 21
82.7458
 31
0.0
  0
LINE
  8
0
 62
     0
 10
92.2955
 20
82.7458
 30
0.0
 11
97.0372
 21
81.431
 31
0.0
  0
LINE
  8
0
 62
     0
 10
97.0372
 20
81.431
 30
0.0
 11
101.331
 21
79.3404
 31
0.0
  0
LINE
  8
0
 62
     0
 10
101.331
 20
79.3404
 30
0.0
 11
105.079
 21
76.5609
 31
0.0
  0
LINE
  8
0
 62
     0
 10
105.079
 20
76.5609
 30
0.0
 11
108.178
 21
73.1848
 31
0.0
  0
LINE
  8
0
 62
     0
 10
108.178
 20
73.1848
 30
0.0
 11
110.526
 21
69.3028
 31
0.0
  0
LINE
  8
0
 62
     0
 10
110.526
 20
69.3028
 30
0.0
 11
112.018
 21
65.0088
 31
0.0
  0
LINE
  8
0
 62
     0
 10
112.018
 20
65.0088
 30
0.0
 11
112.551
 21
61.5488
 31
0.0
  0
LINE
  8
0
 62
     0
 10
112.551
 20
61.5488
 30
0.0
 11
112.558
 21
60.3938
 31
0.0
  0
LINE
  8
0
 62
     0
 10
112.558
 20
60.3938
 30
0.0
 11
112.558
 21
60.3345
 31
0.0
  0
LINE
  8
0
 62
     0
 10
112.558
 20
60.3345
 30
0.0
 11
112.558
 21
60.1984
 31
0.0
  0
LINE
  8
0
 62
     0
 10
112.558
 20
60.1984
 30
0.0
 11
112.558
 21
60.1528
 31
0.0
  0
LINE
  8
0
 62
     0
 10
87.4586
 20
6.82128
 30
0.0
 11
86.2969
 21
6.77305
 31
0.0
  0
LINE
  8
0
 62
     0
 10
86.2969
 20
6.77305
 30
0.0
 11
82.7966
 21
7.11069
 31
0.0
  0
LINE
  8
0
 62
     0
 10
82.7966
 20
7.11069
 30
0.0
 11
78.3015
 21
8.23517
 31
0.0
  0
LINE
  8
0
 62
     0
 10
78.3015
 20
8.23517
 30
0.0
 11
74.1151
 21
9.98114
 31
0.0
  0
LINE
  8
0
 62
     0
 10
74.1151
 20
9.98114
 30
0.0
 11
70.3792
 21
12.1378
 31
0.0
  0
LINE
  8
0
 62
     0
 10
70.3792
 20
12.1378
 30
0.0
 11
67.2387
 21
14.4928
 31
0.0
  0
LINE
  8
0
 62
     0
 10
67.2387
 20
14.4928
 30
0.0
 11
64.8367
 21
16.8327
 31
0.0
  0
LINE
  8
0
 62
     0
 10
64.8367
 20
16.8327
 30
0.0
 11
63.3141
 21
18.9466
 31
0.0
  0
LINE
  8
0
 62
     0
 10
63.3141
 20
18.9466
 30
0.0
 11
62.7973
 21
20.2089
 31
0.0
  0
LINE
  8
0
 62
     0
 10
62.7973
 20
20.2089
 30
0.0
 11
62.8167
 21
20.6196
 31
0.0
  0
LINE
  8
0
 62
     0
 10
62.8167
 20
20.6196
 30
0.0
 11
62.7973
 21
21.106
 31
0.0
  0
LINE
  8
0
 62
     0
 10
62.7973
 20
21.106
 30
0.0
 11
63.4351
 21
22.586
 31
0.0
  0
LINE
  8
0
 62
     0
 10
63.4351
 20
22.586
 30
0.0
 11
65.2762
 21
24.4023
 31
0.0
  0
LINE
  8
0
 62
     0
 10
65.2762
 20
24.4023
 30
0.0
 11
68.0875
 21
26.0312
 31
0.0
  0
LINE
  8
0
 62
     0
 10
68.0875
 20
26.0312
 30
0.0
 11
71.6276
 21
27.4326
 31
0.0
  0
LINE
  8
0
 62
     0
 10
71.6276
 20
27.4326
 30
0.0
 11
75.6461
 21
28.5681
 31
0.0
  0
LINE
  8
0
 62
     0
 10
75.6461
 20
28.5681
 30
0.0
 11
79.8999
 21
29.4018
 31
0.0
  0
LINE
  8
0
 62
     0
 10
79.8999
 20
29.4018
 30
0.0
 11
84.1431
 21
29.8924
 31
0.0
  0
LINE
  8
0
 62
     0
 10
84.1431
 20
29.8924
 30
0.0
 11
87.1333
 21
30.0261
 31
0.0
  0
LINE
  8
0
 62
     0
 10
87.1333
 20
30.0261
 30
0.0
 11
88.1295
 21
30.0013
 31
0.0
  0
LINE
  8
0
 62
     0
 10
88.1295
 20
30.0013
 30
0.0
 11
89.1081
 21
30.044
 31
0.0
  0
LINE
  8
0
 62
     0
 10
89.1081
 20
30.044
 30
0.0
 11
92.0556
 21
29.9792
 31
0.0
  0
LINE
  8
0
 62
     0
 10
92.0556
 20
29.9792
 30
0.0
 11
96.1087
 21
29.6085
 31
0.0
  0
LINE
  8
0
 62
     0
 10
96.1087
 20
29.6085
 30
0.0
 11
100.087
 21
28.9223
 31
0.0
  0
LINE
  8
0
 62
     0
 10
100.087
 20
28.9223
 30
0.0
 11
103.791
 21
27.9535
 31
0.0
  0
LINE
  8
0
 62
     0
 10
103.791
 20
27.9535
 30
0.0
 11
107.021
 21
26.7381
 31
0.0
  0
LINE
  8
0
 62
     0
 10
107.021
 20
26.7381
 30
0.0
 11
109.579
 21
25.3091
 31
0.0
  0
LINE
  8
0
 62
     0
 10
109.579
 20
25.3091
 30
0.0
 11
111.263
 21
23.7009
 31
0.0
  0
LINE
  8
0
 62
     0
 10
111.263
 20
23.7009
 30
0.0
 11
111.873
 21
22.3848
 31
0.0
  0
LINE
  8
0
 62
     0
 10
111.873
 20
22.3848
 30
0.0
 11
111.876
 21
21.9452
 31
0.0
  0
LINE
  8
0
 62
     0
 10
111.876
 20
21.9452
 30
0.0
 11
111.893
 21
21.4492
 31
0.0
  0
LINE
  8
0
 62
     0
 10
111.893
 20
21.4492
 30
0.0
 11
111.372
 21
19.9374
 31
0.0
  0
LINE
  8
0
 62
     0
 10
111.372
 20
19.9374
 30
0.0
 11
109.832
 21
17.5686
 31
0.0
  0
LINE
  8
0
 62
     0
 10
109.832
 20
17.5686
 30
0.0
 11
107.411
 21
15.0385
 31
0.0
  0
LINE
  8
0
 62
     0
 10
107.411
 20
15.0385
 30
0.0
 11
104.264
 21
12.5429
 31
0.0
  0
LINE
  8
0
 62
     0
 10
104.264
 20
12.5429
 30
0.0
 11
100.54
 21
10.276
 31
0.0
  0
LINE
  8
0
 62
     0
 10
100.54
 20
10.276
 30
0.0
 11
96.3979
 21
8.43636
 31
0.0
  0
LINE
  8
0
 62
     0
 10
96.3979
 20
8.43636
 30
0.0
 11
91.984
 21
7.21953
 31
0.0
  0
LINE
  8
0
 62
     0
 10
91.984
 20
7.21953
 30
0.0
 11
88.5871
 21
6.80339
 31
0.0
  0
LINE
  8
0
 62
     0
 10
88.5871
 20
6.80339
 30
0.0
 11
87.4586
 21
6.82128
 31
0.0
  0
LINE
  8
0
 62
     0
 10
43.827
 20
81.7316
 30
0.0
 11
42.8763
 21
82.3461
 31
0.0
  0
LINE
  8
0
 62
     0
 10
42.8763
 20
82.3461
 30
0.0
 11
40.313
 21
84.6391
 31
0.0
  0
LINE
  8
0
 62
     0
 10
40.313
 20
84.6391
 30
0.0
 11
37.6206
 21
88.2096
 31
0.0
  0
LINE
  8
0
 62
     0
 10
37.6206
 20
88.2096
 30
0.0
 11
35.7643
 21
92.3064
 31
0.0
  0
LINE
  8
0
 62
     0
 10
35.7643
 20
92.3064
 30
0.0
 11
34.7597
 21
96.7934
 31
0.0
  0
LINE
  8
0
 62
     0
 10
34.7597
 20
96.7934
 30
0.0
 11
34.6274
 21
101.531
 31
0.0
  0
LINE
  8
0
 62
     0
 10
34.6274
 20
101.531
 30
0.0
 11
35.3826
 21
106.383
 31
0.0
  0
LINE
  8
0
 62
     0
 10
35.3826
 20
106.383
 30
0.0
 11
37.0403
 21
111.215
 31
0.0
  0
LINE
  8
0
 62
     0
 10
37.0403
 20
111.215
 30
0.0
 11
38.8828
 21
114.779
 31
0.0
  0
LINE
  8
0
 62
     0
 10
38.8828
 20
114.779
 30
0.0
 11
39.6226
 21
115.882
 31
0.0
  0
LINE
  8
0
 62
     0
 10
39.6226
 20
115.882
 30
0.0
 11
40.3627
 21
116.989
 31
0.0
  0
LINE
  8
0
 62
     0
 10
40.3627
 20
116.989
 30
0.0
 11
42.9687
 21
120.055
 31
0.0
  0
LINE
  8
0
 62
     0
 10
42.9687
 20
120.055
 30
0.0
 11
46.8341
 21
123.46
 31
0.0
  0
LINE
  8
0
 62
     0
 10
46.8341
 20
123.46
 30
0.0
 11
51.0755
 21
126.062
 31
0.0
  0
LINE
  8
0
 62
     0
 10
51.0755
 20
126.062
 30
0.0
 11
55.5625
 21
127.816
 31
0.0
  0
LINE
  8
0
 62
     0
 10
55.5625
 20
127.816
 30
0.0
 11
60.1581
 21
128.689
 31
0.0
  0
LINE
  8
0
 62
     0
 10
60.1581
 20
128.689
 30
0.0
 11
64.7277
 21
128.636
 31
0.0
  0
LINE
  8
0
 62
     0
 10
64.7277
 20
128.636
 30
0.0
 11
69.1363
 21
127.622
 31
0.0
  0
LINE
  8
0
 62
     0
 10
69.1363
 20
127.622
 30
0.0
 11
72.2919
 21
126.223
 31
0.0
  0
LINE
  8
0
 62
     0
 10
72.2919
 20
126.223
 30
0.0
 11
73.2469
 21
125.605
 31
0.0
  0
LINE
  8
0
 62
     0
 10
73.2469
 20
125.605
 30
0.0
 11
74.1976
 21
124.992
 31
0.0
  0
LINE
  8
0
 62
     0
 10
74.1976
 20
124.992
 30
0.0
 11
76.7595
 21
122.698
 31
0.0
  0
LINE
  8
0
 62
     0
 10
76.7595
 20
122.698
 30
0.0
 11
79.4523
 21
119.127
 31
0.0
  0
LINE
  8
0
 62
     0
 10
79.4523
 20
119.127
 30
0.0
 11
81.3096
 21
115.03
 31
0.0
  0
LINE
  8
0
 62
     0
 10
81.3096
 20
115.03
 30
0.0
 11
82.3129
 21
110.545
 31
0.0
  0
LINE
  8
0
 62
     0
 10
82.3129
 20
110.545
 30
0.0
 11
82.4452
 21
105.806
 31
0.0
  0
LINE
  8
0
 62
     0
 10
82.4452
 20
105.806
 30
0.0
 11
81.6928
 21
100.954
 31
0.0
  0
LINE
  8
0
 62
     0
 10
81.6928
 20
100.954
 30
0.0
 11
80.0322
 21
96.1249
 31
0.0
  0
LINE
  8
0
 62
     0
 10
80.0322
 20
96.1249
 30
0.0
 11
78.1939
 21
92.5587
 31
0.0
  0
LINE
  8
0
 62
     0
 10
78.1939
 20
92.5587
 30
0.0
 11
77.4541
 21
91.4548
 31
0.0
  0
LINE
  8
0
 62
     0
 10
77.4541
 20
91.4548
 30
0.0
 11
76.7112
 21
90.3482
 31
0.0
  0
LINE
  8
0
 62
     0
 10
76.7112
 20
90.3482
 30
0.0
 11
74.1041
 21
87.2836
 31
0.0
  0
LINE
  8
0
 62
     0
 10
74.1041
 20
87.2836
 30
0.0
 11
70.2398
 21
83.8771
 31
0.0
  0
LINE
  8
0
 62
     0
 10
70.2398
 20
83.8771
 30
0.0
 11
65.997
 21
81.2754
 31
0.0
  0
LINE
  8
0
 62
     0
 10
65.997
 20
81.2754
 30
0.0
 11
61.5114
 21
79.5211
 31
0.0
  0
LINE
  8
0
 62
     0
 10
61.5114
 20
79.5211
 30
0.0
 11
56.9143
 21
78.6486
 31
0.0
  0
LINE
  8
0
 62
     0
 10
56.9143
 20
78.6486
 30
0.0
 11
52.3462
 21
78.7012
 31
0.0
  0
LINE
  8
0
 62
     0
 10
52.3462
 20
78.7012
 30
0.0
 11
47.9379
 21
79.7154
 31
0.0
  0
LINE
  8
0
 62
     0
 10
47.9379
 20
79.7154
 30
0.0
 11
44.782
 21
81.1142
 31
0.0
  0
LINE
  8
0
 62
     0
 10
44.782
 20
81.1142
 30
0.0
 11
43.827
 21
81.7316
 31
0.0
  0
LINE
  8
0
 62
     0
 10
55.1243
 20
30.6669
 30
0.0
 11
54.5497
 21
30.3265
 31
0.0
  0
LINE
  8
0
 62
     0
 10
54.5497
 20
30.3265
 30
0.0
 11
52.6313
 21
29.6375
 31
0.0
  0
LINE
  8
0
 62
     0
 10
52.6313
 20
29.6375
 30
0.0
 11
49.5184
 21
29.1455
 31
0.0
  0
LINE
  8
0
 62
     0
 10
49.5184
 20
29.1455
 30
0.0
 11
45.9274
 21
29.2833
 31
0.0
  0
LINE
  8
0
 62
     0
 10
45.9274
 20
29.2833
 30
0.0
 11
42
 21
30.1418
 31
0.0
  0
LINE
  8
0
 62
     0
 10
42
 20
30.1418
 30
0.0
 11
37.8795
 21
31.812
 31
0.0
  0
LINE
  8
0
 62
     0
 10
37.8795
 20
31.812
 30
0.0
 11
33.7054
 21
34.382
 31
0.0
  0
LINE
  8
0
 62
     0
 10
33.7054
 20
34.382
 30
0.0
 11
29.6251
 21
37.9444
 31
0.0
  0
LINE
  8
0
 62
     0
 10
29.6251
 20
37.9444
 30
0.0
 11
26.643
 21
41.3618
 31
0.0
  0
LINE
  8
0
 62
     0
 10
26.643
 20
41.3618
 30
0.0
 11
25.7762
 21
42.5898
 31
0.0
  0
LINE
  8
0
 62
     0
 10
25.7762
 20
42.5898
 30
0.0
 11
25.1754
 21
43.6467
 31
0.0
  0
LINE
  8
0
 62
     0
 10
25.1754
 20
43.6467
 30
0.0
 11
23.6347
 21
46.9621
 31
0.0
  0
LINE
  8
0
 62
     0
 10
23.6347
 20
46.9621
 30
0.0
 11
22.1506
 21
51.2505
 31
0.0
  0
LINE
  8
0
 62
     0
 10
22.1506
 20
51.2505
 30
0.0
 11
21.281
 21
55.3572
 31
0.0
  0
LINE
  8
0
 62
     0
 10
21.281
 20
55.3572
 30
0.0
 11
20.9848
 21
59.1827
 31
0.0
  0
LINE
  8
0
 62
     0
 10
20.9848
 20
59.1827
 30
0.0
 11
21.2176
 21
62.6223
 31
0.0
  0
LINE
  8
0
 62
     0
 10
21.2176
 20
62.6223
 30
0.0
 11
21.9356
 21
65.5782
 31
0.0
  0
LINE
  8
0
 62
     0
 10
21.9356
 20
65.5782
 30
0.0
 11
23.0959
 21
67.9496
 31
0.0
  0
LINE
  8
0
 62
     0
 10
23.0959
 20
67.9496
 30
0.0
 11
24.2039
 21
69.2976
 31
0.0
  0
LINE
  8
0
 62
     0
 10
24.2039
 20
69.2976
 30
0.0
 11
24.6559
 21
69.6352
 31
0.0
  0
LINE
  8
0
 62
     0
 10
24.6559
 20
69.6352
 30
0.0
 11
25.2884
 21
70.0155
 31
0.0
  0
LINE
  8
0
 62
     0
 10
25.2884
 20
70.0155
 30
0.0
 11
27.4298
 21
70.7542
 31
0.0
  0
LINE
  8
0
 62
     0
 10
27.4298
 20
70.7542
 30
0.0
 11
30.4877
 21
71.0212
 31
0.0
  0
LINE
  8
0
 62
     0
 10
30.4877
 20
71.0212
 30
0.0
 11
33.7537
 21
70.5086
 31
0.0
  0
LINE
  8
0
 62
     0
 10
33.7537
 20
70.5086
 30
0.0
 11
37.1546
 21
69.2848
 31
0.0
  0
LINE
  8
0
 62
     0
 10
37.1546
 20
69.2848
 30
0.0
 11
40.6178
 21
67.4247
 31
0.0
  0
LINE
  8
0
 62
     0
 10
40.6178
 20
67.4247
 30
0.0
 11
44.0697
 21
64.9937
 31
0.0
  0
LINE
  8
0
 62
     0
 10
44.0697
 20
64.9937
 30
0.0
 11
47.4349
 21
62.0656
 31
0.0
  0
LINE
  8
0
 62
     0
 10
47.4349
 20
62.0656
 30
0.0
 11
49.8782
 21
59.581
 31
0.0
  0
LINE
  8
0
 62
     0
 10
49.8782
 20
59.581
 30
0.0
 11
50.643
 21
58.7072
 31
0.0
  0
LINE
  8
0
 62
     0
 10
50.643
 20
58.7072
 30
0.0
 11
51.332
 21
57.8901
 31
0.0
  0
LINE
  8
0
 62
     0
 10
51.332
 20
57.8901
 30
0.0
 11
53.1509
 21
55.2249
 31
0.0
  0
LINE
  8
0
 62
     0
 10
53.1509
 20
55.2249
 30
0.0
 11
55.2319
 21
51.3373
 31
0.0
  0
LINE
  8
0
 62
     0
 10
55.2319
 20
51.3373
 30
0.0
 11
56.8152
 21
47.2419
 31
0.0
  0
LINE
  8
0
 62
     0
 10
56.8152
 20
47.2419
 30
0.0
 11
57.8446
 21
43.138
 31
0.0
  0
LINE
  8
0
 62
     0
 10
57.8446
 20
43.138
 30
0.0
 11
58.2524
 21
39.2299
 31
0.0
  0
LINE
  8
0
 62
     0
 10
58.2524
 20
39.2299
 30
0.0
 11
57.9769
 21
35.7159
 31
0.0
  0
LINE
  8
0
 62
     0
 10
57.9769
 20
35.7159
 30
0.0
 11
56.9542
 21
32.7945
 31
0.0
  0
LINE
  8
0
 62
     0
 10
56.9542
 20
32.7945
 30
0.0
 11
55.674
 21
31.0747
 31
0.0
  0
LINE
  8
0
 62
     0
 10
55.674
 20
31.0747
 30
0.0
 11
55.1243
 21
30.6669
 31
0.0
  0
LINE
  8
0
 62
     0
 10
16.3105
 20
72.5385
 30
0.0
 11
15.8282
 21
72.9202
 31
0.0
  0
LINE
  8
0
 62
     0
 10
15.8282
 20
72.9202
 30
0.0
 11
14.4997
 21
74.2128
 31
0.0
  0
LINE
  8
0
 62
     0
 10
14.4997
 20
74.2128
 30
0.0
 11
12.8736
 21
76.2071
 31
0.0
  0
LINE
  8
0
 62
     0
 10
12.8736
 20
76.2071
 30
0.0
 11
11.4515
 21
78.4807
 31
0.0
  0
LINE
  8
0
 62
     0
 10
11.4515
 20
78.4807
 30
0.0
 11
10.2581
 21
80.99
 31
0.0
  0
LINE
  8
0
 62
     0
 10
10.2581
 20
80.99
 30
0.0
 11
9.31139
 21
83.6979
 31
0.0
  0
LINE
  8
0
 62
     0
 10
9.31139
 20
83.6979
 30
0.0
 11
8.63618
 21
86.5572
 31
0.0
  0
LINE
  8
0
 62
     0
 10
8.63618
 20
86.5572
 30
0.0
 11
8.25444
 21
89.5297
 31
0.0
  0
LINE
  8
0
 62
     0
 10
8.25444
 20
89.5297
 30
0.0
 11
8.18967
 21
92.5738
 31
0.0
  0
LINE
  8
0
 62
     0
 10
8.18967
 20
92.5738
 30
0.0
 11
8.46116
 21
95.6483
 31
0.0
  0
LINE
  8
0
 62
     0
 10
8.46116
 20
95.6483
 30
0.0
 11
9.09228
 21
98.7104
 31
0.0
  0
LINE
  8
0
 62
     0
 10
9.09228
 20
98.7104
 30
0.0
 11
10.1065
 21
101.719
 31
0.0
  0
LINE
  8
0
 62
     0
 10
10.1065
 20
101.719
 30
0.0
 11
11.5232
 21
104.632
 31
0.0
  0
LINE
  8
0
 62
     0
 10
11.5232
 20
104.632
 30
0.0
 11
13.3683
 21
107.408
 31
0.0
  0
LINE
  8
0
 62
     0
 10
13.3683
 20
107.408
 30
0.0
 11
15.66
 21
110.007
 31
0.0
  0
LINE
  8
0
 62
     0
 10
15.66
 20
110.007
 30
0.0
 11
18.423
 21
112.389
 31
0.0
  0
LINE
  8
0
 62
     0
 10
18.423
 20
112.389
 30
0.0
 11
20.8359
 21
114.033
 31
0.0
  0
LINE
  8
0
 62
     0
 10
20.8359
 20
114.033
 30
0.0
 11
21.6793
 21
114.507
 31
0.0
  0
LINE
  8
0
 62
     0
 10
21.6793
 20
114.507
 30
0.0
 11
22.1203
 21
114.624
 31
0.0
  0
LINE
  8
0
 62
     0
 10
22.1203
 20
114.624
 30
0.0
 11
23.5782
 21
114.483
 31
0.0
  0
LINE
  8
0
 62
     0
 10
23.5782
 20
114.483
 30
0.0
 11
25.0624
 21
113.395
 31
0.0
  0
LINE
  8
0
 62
     0
 10
25.0624
 20
113.395
 30
0.0
 11
26.1579
 21
111.397
 31
0.0
  0
LINE
  8
0
 62
     0
 10
26.1579
 20
111.397
 30
0.0
 11
26.8897
 21
108.643
 31
0.0
  0
LINE
  8
0
 62
     0
 10
26.8897
 20
108.643
 30
0.0
 11
27.2796
 21
105.285
 31
0.0
  0
LINE
  8
0
 62
     0
 10
27.2796
 20
105.285
 30
0.0
 11
27.3554
 21
101.479
 31
0.0
  0
LINE
  8
0
 62
     0
 10
27.3554
 20
101.479
 30
0.0
 11
27.1432
 21
97.3776
 31
0.0
  0
LINE
  8
0
 62
     0
 10
27.1432
 20
97.3776
 30
0.0
 11
26.665
 21
93.1333
 31
0.0
  0
LINE
  8
0
 62
     0
 10
26.665
 20
93.1333
 30
0.0
 11
25.9471
 21
88.9028
 31
0.0
  0
LINE
  8
0
 62
     0
 10
25.9471
 20
88.9028
 30
0.0
 11
25.0142
 21
84.8388
 31
0.0
  0
LINE
  8
0
 62
     0
 10
25.0142
 20
84.8388
 30
0.0
 11
23.8938
 21
81.092
 31
0.0
  0
LINE
  8
0
 62
     0
 10
23.8938
 20
81.092
 30
0.0
 11
22.6067
 21
77.8207
 31
0.0
  0
LINE
  8
0
 62
     0
 10
22.6067
 20
77.8207
 30
0.0
 11
21.1791
 21
75.1762
 31
0.0
  0
LINE
  8
0
 62
     0
 10
21.1791
 20
75.1762
 30
0.0
 11
19.6384
 21
73.3118
 31
0.0
  0
LINE
  8
0
 62
     0
 10
19.6384
 20
73.3118
 30
0.0
 11
18.0055
 21
72.3815
 31
0.0
  0
LINE
  8
0
 62
     0
 10
18.0055
 20
72.3815
 30
0.0
 11
16.6798
 21
72.3773
 31
0.0
  0
LINE
  8
0
 62
     0
 10
16.6798
 20
72.3773
 30
0.0
 11
16.3105
 21
72.5385
 31
0.0
  0
LINE
  8
0
 62
     0
 10
60.4146
 20
152.262
 30
0.0
 11
60.6323
 21
152.226
 31
0.0
  0
LINE
  8
0
 62
     0
 10
60.6323
 20
152.226
 30
0.0
 11
61.2098
 21
151.655
 31
0.0
  0
LINE
  8
0
 62
     0
 10
61.2098
 20
151.655
 30
0.0
 11
60.9946
 21
150.35
 31
0.0
  0
LINE
  8
0
 62
     0
 10
60.9946
 20
150.35
 30
0.0
 11
59.9006
 21
148.464
 31
0.0
  0
LINE
  8
0
 62
     0
 10
59.9006
 20
148.464
 30
0.0
 11
58.0595
 21
146.116
 31
0.0
  0
LINE
  8
0
 62
     0
 10
58.0595
 20
146.116
 30
0.0
 11
55.601
 21
143.414
 31
0.0
  0
LINE
  8
0
 62
     0
 10
55.601
 20
143.414
 30
0.0
 11
52.6577
 21
140.474
 31
0.0
  0
LINE
  8
0
 62
     0
 10
52.6577
 20
140.474
 30
0.0
 11
49.36
 21
137.415
 31
0.0
  0
LINE
  8
0
 62
     0
 10
49.36
 20
137.415
 30
0.0
 11
45.8403
 21
134.348
 31
0.0
  0
LINE
  8
0
 62
     0
 10
45.8403
 20
134.348
 30
0.0
 11
42.2271
 21
131.388
 31
0.0
  0
LINE
  8
0
 62
     0
 10
42.2271
 20
131.388
 30
0.0
 11
38.6553
 21
128.648
 31
0.0
  0
LINE
  8
0
 62
     0
 10
38.6553
 20
128.648
 30
0.0
 11
35.2544
 21
126.248
 31
0.0
  0
LINE
  8
0
 62
     0
 10
35.2544
 20
126.248
 30
0.0
 11
32.1551
 21
124.298
 31
0.0
  0
LINE
  8
0
 62
     0
 10
32.1551
 20
124.298
 30
0.0
 11
29.49
 21
122.913
 31
0.0
  0
LINE
  8
0
 62
     0
 10
29.49
 20
122.913
 30
0.0
 11
27.3885
 21
122.209
 31
0.0
  0
LINE
  8
0
 62
     0
 10
27.3885
 20
122.209
 30
0.0
 11
25.9843
 21
122.302
 31
0.0
  0
LINE
  8
0
 62
     0
 10
25.9843
 20
122.302
 30
0.0
 11
25.4276
 21
123.044
 31
0.0
  0
LINE
  8
0
 62
     0
 10
25.4276
 20
123.044
 30
0.0
 11
25.4069
 21
123.303
 31
0.0
  0
LINE
  8
0
 62
     0
 10
25.4069
 20
123.303
 30
0.0
 11
25.3766
 21
124.248
 31
0.0
  0
LINE
  8
0
 62
     0
 10
25.3766
 20
124.248
 30
0.0
 11
25.4786
 21
127.091
 31
0.0
  0
LINE
  8
0
 62
     0
 10
25.4786
 20
127.091
 30
0.0
 11
25.925
 21
130.652
 31
0.0
  0
LINE
  8
0
 62
     0
 10
25.925
 20
130.652
 30
0.0
 11
26.727
 21
133.977
 31
0.0
  0
LINE
  8
0
 62
     0
 10
26.727
 20
133.977
 30
0.0
 11
27.8626
 21
137.058
 31
0.0
  0
LINE
  8
0
 62
     0
 10
27.8626
 20
137.058
 30
0.0
 11
29.3164
 21
139.889
 31
0.0
  0
LINE
  8
0
 62
     0
 10
29.3164
 20
139.889
 30
0.0
 11
31.0624
 21
142.46
 31
0.0
  0
LINE
  8
0
 62
     0
 10
31.0624
 20
142.46
 30
0.0
 11
33.0867
 21
144.767
 31
0.0
  0
LINE
  8
0
 62
     0
 10
33.0867
 20
144.767
 30
0.0
 11
35.366
 21
146.798
 31
0.0
  0
LINE
  8
0
 62
     0
 10
35.366
 20
146.798
 30
0.0
 11
37.8795
 21
148.547
 31
0.0
  0
LINE
  8
0
 62
     0
 10
37.8795
 20
148.547
 30
0.0
 11
40.6107
 21
150.008
 31
0.0
  0
LINE
  8
0
 62
     0
 10
40.6107
 20
150.008
 30
0.0
 11
43.5363
 21
151.171
 31
0.0
  0
LINE
  8
0
 62
     0
 10
43.5363
 20
151.171
 30
0.0
 11
46.6411
 21
152.029
 31
0.0
  0
LINE
  8
0
 62
     0
 10
46.6411
 20
152.029
 30
0.0
 11
49.9001
 21
152.575
 31
0.0
  0
LINE
  8
0
 62
     0
 10
49.9001
 20
152.575
 30
0.0
 11
53.2941
 21
152.801
 31
0.0
  0
LINE
  8
0
 62
     0
 10
53.2941
 20
152.801
 30
0.0
 11
56.8053
 21
152.701
 31
0.0
  0
LINE
  8
0
 62
     0
 10
56.8053
 20
152.701
 30
0.0
 11
59.5189
 21
152.411
 31
0.0
  0
LINE
  8
0
 62
     0
 10
59.5189
 20
152.411
 30
0.0
 11
60.4146
 21
152.262
 31
0.0
  0
LINE
  8
0
 62
     0
 10
34.7762
 20
162.581
 30
0.0
 11
35.0352
 21
162.635
 31
0.0
  0
LINE
  8
0
 62
     0
 10
35.0352
 20
162.635
 30
0.0
 11
35.8055
 21
162.833
 31
0.0
  0
LINE
  8
0
 62
     0
 10
35.8055
 20
162.833
 30
0.0
 11
36.6007
 21
163.158
 31
0.0
  0
LINE
  8
0
 62
     0
 10
36.6007
 20
163.158
 30
0.0
 11
37.2389
 21
163.638
 31
0.0
  0
LINE
  8
0
 62
     0
 10
37.2389
 20
163.638
 30
0.0
 11
37.6784
 21
164.159
 31
0.0
  0
LINE
  8
0
 62
     0
 10
37.6784
 20
164.159
 30
0.0
 11
37.8008
 21
164.348
 31
0.0
  0
LINE
  8
0
 62
     0
 10
37.8008
 20
164.348
 30
0.0
 11
37.0762
 21
164.576
 31
0.0
  0
LINE
  8
0
 62
     0
 10
37.0762
 20
164.576
 30
0.0
 11
34.8933
 21
165.24
 31
0.0
  0
LINE
  8
0
 62
     0
 10
34.8933
 20
165.24
 30
0.0
 11
32.0642
 21
166.175
 31
0.0
  0
LINE
  8
0
 62
     0
 10
32.0642
 20
166.175
 30
0.0
 11
29.4983
 21
167.259
 31
0.0
  0
LINE
  8
0
 62
     0
 10
29.4983
 20
167.259
 30
0.0
 11
27.8626
 21
168.205
 31
0.0
  0
LINE
  8
0
 62
     0
 10
27.8626
 20
168.205
 30
0.0
 11
27.383
 21
168.597
 31
0.0
  0
LINE
  8
0
 62
     0
 10
27.383
 20
168.597
 30
0.0
 11
27.6269
 21
168.595
 31
0.0
  0
LINE
  8
0
 62
     0
 10
27.6269
 20
168.595
 30
0.0
 11
28.3614
 21
168.566
 31
0.0
  0
LINE
  8
0
 62
     0
 10
28.3614
 20
168.566
 30
0.0
 11
29.3605
 21
168.595
 31
0.0
  0
LINE
  8
0
 62
     0
 10
29.3605
 20
168.595
 30
0.0
 11
30.4353
 21
168.847
 31
0.0
  0
LINE
  8
0
 62
     0
 10
30.4353
 20
168.847
 30
0.0
 11
31.36
 21
169.291
 31
0.0
  0
LINE
  8
0
 62
     0
 10
31.36
 20
169.291
 30
0.0
 11
31.6398
 21
169.481
 31
0.0
  0
LINE
  8
0
 62
     0
 10
31.6398
 20
169.481
 30
0.0
 11
30.9935
 21
169.824
 31
0.0
  0
LINE
  8
0
 62
     0
 10
30.9935
 20
169.824
 30
0.0
 11
29.0311
 21
170.808
 31
0.0
  0
LINE
  8
0
 62
     0
 10
29.0311
 20
170.808
 30
0.0
 11
26.4349
 21
172.154
 31
0.0
  0
LINE
  8
0
 62
     0
 10
26.4349
 20
172.154
 30
0.0
 11
23.9489
 21
173.681
 31
0.0
  0
LINE
  8
0
 62
     0
 10
23.9489
 20
173.681
 30
0.0
 11
22.1947
 21
175.04
 31
0.0
  0
LINE
  8
0
 62
     0
 10
22.1947
 20
175.04
 30
0.0
 11
21.671
 21
175.552
 31
0.0
  0
LINE
  8
0
 62
     0
 10
21.671
 20
175.552
 30
0.0
 11
22.0045
 21
175.559
 31
0.0
  0
LINE
  8
0
 62
     0
 10
22.0045
 20
175.559
 30
0.0
 11
23.0077
 21
175.584
 31
0.0
  0
LINE
  8
0
 62
     0
 10
23.0077
 20
175.584
 30
0.0
 11
24.2562
 21
175.659
 31
0.0
  0
LINE
  8
0
 62
     0
 10
24.2562
 20
175.659
 30
0.0
 11
25.2773
 21
175.846
 31
0.0
  0
LINE
  8
0
 62
     0
 10
25.2773
 20
175.846
 30
0.0
 11
25.812
 21
176.082
 31
0.0
  0
LINE
  8
0
 62
     0
 10
25.812
 20
176.082
 30
0.0
 11
25.9278
 21
176.214
 31
0.0
  0
LINE
  8
0
 62
     0
 10
25.9278
 20
176.214
 30
0.0
 11
25.1395
 21
176.695
 31
0.0
  0
LINE
  8
0
 62
     0
 10
25.1395
 20
176.695
 30
0.0
 11
21.5663
 21
179.259
 31
0.0
  0
LINE
  8
0
 62
     0
 10
21.5663
 20
179.259
 30
0.0
 11
18.4671
 21
182.032
 31
0.0
  0
LINE
  8
0
 62
     0
 10
18.4671
 20
182.032
 30
0.0
 11
17.9173
 21
182.616
 31
0.0
  0
LINE
  8
0
 62
     0
 10
17.9173
 20
182.616
 30
0.0
 11
18.3183
 21
182.57
 31
0.0
  0
LINE
  8
0
 62
     0
 10
18.3183
 20
182.57
 30
0.0
 11
19.5309
 21
182.492
 31
0.0
  0
LINE
  8
0
 62
     0
 10
19.5309
 20
182.492
 30
0.0
 11
20.6995
 21
182.539
 31
0.0
  0
LINE
  8
0
 62
     0
 10
20.6995
 20
182.539
 30
0.0
 11
21.5112
 21
182.721
 31
0.0
  0
LINE
  8
0
 62
     0
 10
21.5112
 20
182.721
 30
0.0
 11
21.9384
 21
182.915
 31
0.0
  0
LINE
  8
0
 62
     0
 10
21.9384
 20
182.915
 30
0.0
 11
22.0638
 21
183.002
 31
0.0
  0
LINE
  8
0
 62
     0
 10
22.0638
 20
183.002
 30
0.0
 11
21.6118
 21
183.458
 31
0.0
  0
LINE
  8
0
 62
     0
 10
21.6118
 20
183.458
 30
0.0
 11
20.1938
 21
184.756
 31
0.0
  0
LINE
  8
0
 62
     0
 10
20.1938
 20
184.756
 30
0.0
 11
18.2921
 21
186.493
 31
0.0
  0
LINE
  8
0
 62
     0
 10
18.2921
 20
186.493
 30
0.0
 11
16.5695
 21
188.332
 31
0.0
  0
LINE
  8
0
 62
     0
 10
16.5695
 20
188.332
 30
0.0
 11
15.496
 21
189.851
 31
0.0
  0
LINE
  8
0
 62
     0
 10
15.496
 20
189.851
 30
0.0
 11
15.2301
 21
190.399
 31
0.0
  0
LINE
  8
0
 62
     0
 10
15.2301
 20
190.399
 30
0.0
 11
15.5622
 21
190.288
 31
0.0
  0
LINE
  8
0
 62
     0
 10
15.5622
 20
190.288
 30
0.0
 11
16.5833
 21
190.014
 31
0.0
  0
LINE
  8
0
 62
     0
 10
16.5833
 20
190.014
 30
0.0
 11
17.8456
 21
189.846
 31
0.0
  0
LINE
  8
0
 62
     0
 10
17.8456
 20
189.846
 30
0.0
 11
18.9921
 21
189.968
 31
0.0
  0
LINE
  8
0
 62
     0
 10
18.9921
 20
189.968
 30
0.0
 11
19.7735
 21
190.29
 31
0.0
  0
LINE
  8
0
 62
     0
 10
19.7735
 20
190.29
 30
0.0
 11
19.9912
 21
190.454
 31
0.0
  0
LINE
  8
0
 62
     0
 10
19.9912
 20
190.454
 30
0.0
 11
19.8286
 21
190.817
 31
0.0
  0
LINE
  8
0
 62
     0
 10
19.8286
 20
190.817
 30
0.0
 11
18.9494
 21
191.727
 31
0.0
  0
LINE
  8
0
 62
     0
 10
18.9494
 20
191.727
 30
0.0
 11
17.2999
 21
193.085
 31
0.0
  0
LINE
  8
0
 62
     0
 10
17.2999
 20
193.085
 30
0.0
 11
15.4258
 21
194.895
 31
0.0
  0
LINE
  8
0
 62
     0
 10
15.4258
 20
194.895
 30
0.0
 11
14.0505
 21
196.82
 31
0.0
  0
LINE
  8
0
 62
     0
 10
14.0505
 20
196.82
 30
0.0
 11
13.7184
 21
197.52
 31
0.0
  0
LINE
  8
0
 62
     0
 10
13.7184
 20
197.52
 30
0.0
 11
14.0808
 21
197.484
 31
0.0
  0
LINE
  8
0
 62
     0
 10
14.0808
 20
197.484
 30
0.0
 11
15.1722
 21
197.382
 31
0.0
  0
LINE
  8
0
 62
     0
 10
15.1722
 20
197.382
 30
0.0
 11
16.5062
 21
197.294
 31
0.0
  0
LINE
  8
0
 62
     0
 10
16.5062
 20
197.294
 30
0.0
 11
17.5507
 21
197.318
 31
0.0
  0
LINE
  8
0
 62
     0
 10
17.5507
 20
197.318
 30
0.0
 11
18.044
 21
197.42
 31
0.0
  0
LINE
  8
0
 62
     0
 10
18.044
 20
197.42
 30
0.0
 11
18.1433
 21
197.52
 31
0.0
  0
LINE
  8
0
 62
     0
 10
18.1433
 20
197.52
 30
0.0
 11
17.9875
 21
198.143
 31
0.0
  0
LINE
  8
0
 62
     0
 10
17.9875
 20
198.143
 30
0.0
 11
17.355
 21
199.969
 31
0.0
  0
LINE
  8
0
 62
     0
 10
17.355
 20
199.969
 30
0.0
 11
16.3862
 21
201.979
 31
0.0
  0
LINE
  8
0
 62
     0
 10
16.3862
 20
201.979
 30
0.0
 11
15.3031
 21
203.704
 31
0.0
  0
LINE
  8
0
 62
     0
 10
15.3031
 20
203.704
 30
0.0
 11
14.4543
 21
204.903
 31
0.0
  0
LINE
  8
0
 62
     0
 10
14.4543
 20
204.903
 30
0.0
 11
14.169
 21
205.3
 31
0.0
  0
LINE
  8
0
 62
     0
 10
14.169
 20
205.3
 30
0.0
 11
15.0151
 21
205.312
 31
0.0
  0
LINE
  8
0
 62
     0
 10
15.0151
 20
205.312
 30
0.0
 11
17.5589
 21
205.329
 31
0.0
  0
LINE
  8
0
 62
     0
 10
17.5589
 20
205.329
 30
0.0
 11
20.9338
 21
205.358
 31
0.0
  0
LINE
  8
0
 62
     0
 10
20.9338
 20
205.358
 30
0.0
 11
23.4749
 21
205.442
 31
0.0
  0
LINE
  8
0
 62
     0
 10
23.4749
 20
205.442
 30
0.0
 11
24.361
 21
205.631
 31
0.0
  0
LINE
  8
0
 62
     0
 10
24.361
 20
205.631
 30
0.0
 11
24.361
 21
205.631
 31
0.0
  0
LINE
  8
0
 62
     0
 10
24.361
 20
205.631
 30
0.0
 11
21.7854
 21
208.226
 31
0.0
  0
LINE
  8
0
 62
     0
 10
21.7854
 20
208.226
 30
0.0
 11
22.5226
 21
208.423
 31
0.0
  0
LINE
  8
0
 62
     0
 10
22.5226
 20
208.423
 30
0.0
 11
24.835
 21
208.642
 31
0.0
  0
LINE
  8
0
 62
     0
 10
24.835
 20
208.642
 30
0.0
 11
27.8047
 21
208.428
 31
0.0
  0
LINE
  8
0
 62
     0
 10
27.8047
 20
208.428
 30
0.0
 11
30.58
 21
207.84
 31
0.0
  0
LINE
  8
0
 62
     0
 10
30.58
 20
207.84
 30
0.0
 11
32.4294
 21
207.311
 31
0.0
  0
LINE
  8
0
 62
     0
 10
32.4294
 20
207.311
 30
0.0
 11
33.0426
 21
207.122
 31
0.0
  0
LINE
  8
0
 62
     0
 10
33.0426
 20
207.122
 30
0.0
 11
33.2286
 21
207.266
 31
0.0
  0
LINE
  8
0
 62
     0
 10
33.2286
 20
207.266
 30
0.0
 11
33.5855
 21
207.964
 31
0.0
  0
LINE
  8
0
 62
     0
 10
33.5855
 20
207.964
 30
0.0
 11
33.332
 21
208.883
 31
0.0
  0
LINE
  8
0
 62
     0
 10
33.332
 20
208.883
 30
0.0
 11
32.5134
 21
209.863
 31
0.0
  0
LINE
  8
0
 62
     0
 10
32.5134
 20
209.863
 30
0.0
 11
31.6563
 21
210.633
 31
0.0
  0
LINE
  8
0
 62
     0
 10
31.6563
 20
210.633
 30
0.0
 11
31.3614
 21
210.874
 31
0.0
  0
LINE
  8
0
 62
     0
 10
31.3614
 20
210.874
 30
0.0
 11
32.2268
 21
210.763
 31
0.0
  0
LINE
  8
0
 62
     0
 10
32.2268
 20
210.763
 30
0.0
 11
36.3044
 21
209.951
 31
0.0
  0
LINE
  8
0
 62
     0
 10
36.3044
 20
209.951
 30
0.0
 11
40.0636
 21
208.828
 31
0.0
  0
LINE
  8
0
 62
     0
 10
40.0636
 20
208.828
 30
0.0
 11
40.7705
 21
208.558
 31
0.0
  0
LINE
  8
0
 62
     0
 10
40.7705
 20
208.558
 30
0.0
 11
40.8862
 21
208.661
 31
0.0
  0
LINE
  8
0
 62
     0
 10
40.8862
 20
208.661
 30
0.0
 11
41.1593
 21
209.061
 31
0.0
  0
LINE
  8
0
 62
     0
 10
41.1593
 20
209.061
 30
0.0
 11
41.2351
 21
209.565
 31
0.0
  0
LINE
  8
0
 62
     0
 10
41.2351
 20
209.565
 30
0.0
 11
41.0602
 21
210.068
 31
0.0
  0
LINE
  8
0
 62
     0
 10
41.0602
 20
210.068
 30
0.0
 11
40.6961
 21
210.571
 31
0.0
  0
LINE
  8
0
 62
     0
 10
40.6961
 20
210.571
 30
0.0
 11
40.2057
 21
211.075
 31
0.0
  0
LINE
  8
0
 62
     0
 10
40.2057
 20
211.075
 30
0.0
 11
39.649
 21
211.58
 31
0.0
  0
LINE
  8
0
 62
     0
 10
39.649
 20
211.58
 30
0.0
 11
39.0881
 21
212.083
 31
0.0
  0
LINE
  8
0
 62
     0
 10
39.0881
 20
212.083
 30
0.0
 11
38.705
 21
212.453
 31
0.0
  0
LINE
  8
0
 62
     0
 10
38.705
 20
212.453
 30
0.0
 11
38.5865
 21
212.586
 31
0.0
  0
LINE
  8
0
 62
     0
 10
38.5865
 20
212.586
 30
0.0
 11
39.4628
 21
212.423
 31
0.0
  0
LINE
  8
0
 62
     0
 10
39.4628
 20
212.423
 30
0.0
 11
42.0645
 21
211.767
 31
0.0
  0
LINE
  8
0
 62
     0
 10
42.0645
 20
211.767
 30
0.0
 11
44.6761
 21
210.836
 31
0.0
  0
LINE
  8
0
 62
     0
 10
44.6761
 20
210.836
 30
0.0
 11
46.706
 21
209.827
 31
0.0
  0
LINE
  8
0
 62
     0
 10
46.706
 20
209.827
 30
0.0
 11
48.0138
 21
209.047
 31
0.0
  0
LINE
  8
0
 62
     0
 10
48.0138
 20
209.047
 30
0.0
 11
48.4449
 21
208.777
 31
0.0
  0
LINE
  8
0
 62
     0
 10
48.4449
 20
208.777
 30
0.0
 11
48.6738
 21
208.996
 31
0.0
  0
LINE
  8
0
 62
     0
 10
48.6738
 20
208.996
 30
0.0
 11
49.13
 21
209.896
 31
0.0
  0
LINE
  8
0
 62
     0
 10
49.13
 20
209.896
 30
0.0
 11
48.9659
 21
210.95
 31
0.0
  0
LINE
  8
0
 62
     0
 10
48.9659
 20
210.95
 30
0.0
 11
48.2879
 21
211.967
 31
0.0
  0
LINE
  8
0
 62
     0
 10
48.2879
 20
211.967
 30
0.0
 11
47.6444
 21
212.719
 31
0.0
  0
LINE
  8
0
 62
     0
 10
47.6444
 20
212.719
 30
0.0
 11
47.4363
 21
212.973
 31
0.0
  0
LINE
  8
0
 62
     0
 10
47.4363
 20
212.973
 30
0.0
 11
48.1238
 21
212.722
 31
0.0
  0
LINE
  8
0
 62
     0
 10
48.1238
 20
212.722
 30
0.0
 11
50.1234
 21
211.796
 31
0.0
  0
LINE
  8
0
 62
     0
 10
50.1234
 20
211.796
 30
0.0
 11
52.2732
 21
210.502
 31
0.0
  0
LINE
  8
0
 62
     0
 10
52.2732
 20
210.502
 30
0.0
 11
54.0741
 21
209.132
 31
0.0
  0
LINE
  8
0
 62
     0
 10
54.0741
 20
209.132
 30
0.0
 11
55.3131
 21
208.081
 31
0.0
  0
LINE
  8
0
 62
     0
 10
55.3131
 20
208.081
 30
0.0
 11
55.7251
 21
207.728
 31
0.0
  0
LINE
  8
0
 62
     0
 10
55.7251
 20
207.728
 30
0.0
 11
55.7939
 21
207.822
 31
0.0
  0
LINE
  8
0
 62
     0
 10
55.7939
 20
207.822
 30
0.0
 11
56.0158
 21
208.089
 31
0.0
  0
LINE
  8
0
 62
     0
 10
56.0158
 20
208.089
 30
0.0
 11
56.3093
 21
208.449
 31
0.0
  0
LINE
  8
0
 62
     0
 10
56.3093
 20
208.449
 30
0.0
 11
56.5739
 21
208.828
 31
0.0
  0
LINE
  8
0
 62
     0
 10
56.5739
 20
208.828
 30
0.0
 11
56.7711
 21
209.249
 31
0.0
  0
LINE
  8
0
 62
     0
 10
56.7711
 20
209.249
 30
0.0
 11
56.8702
 21
209.736
 31
0.0
  0
LINE
  8
0
 62
     0
 10
56.8702
 20
209.736
 30
0.0
 11
56.8357
 21
210.312
 31
0.0
  0
LINE
  8
0
 62
     0
 10
56.8357
 20
210.312
 30
0.0
 11
56.6332
 21
210.997
 31
0.0
  0
LINE
  8
0
 62
     0
 10
56.6332
 20
210.997
 30
0.0
 11
56.3425
 21
211.617
 31
0.0
  0
LINE
  8
0
 62
     0
 10
56.3425
 20
211.617
 30
0.0
 11
56.2296
 21
211.814
 31
0.0
  0
LINE
  8
0
 62
     0
 10
56.2296
 20
211.814
 30
0.0
 11
56.9447
 21
211.409
 31
0.0
  0
LINE
  8
0
 62
     0
 10
56.9447
 20
211.409
 30
0.0
 11
60.0082
 21
209.167
 31
0.0
  0
LINE
  8
0
 62
     0
 10
60.0082
 20
209.167
 30
0.0
 11
62.4374
 21
206.664
 31
0.0
  0
LINE
  8
0
 62
     0
 10
62.4374
 20
206.664
 30
0.0
 11
62.8371
 21
206.128
 31
0.0
  0
LINE
  8
0
 62
     0
 10
62.8371
 20
206.128
 30
0.0
 11
63.1017
 21
206.295
 31
0.0
  0
LINE
  8
0
 62
     0
 10
63.1017
 20
206.295
 30
0.0
 11
63.748
 21
207.031
 31
0.0
  0
LINE
  8
0
 62
     0
 10
63.748
 20
207.031
 30
0.0
 11
64.0292
 21
208.037
 31
0.0
  0
LINE
  8
0
 62
     0
 10
64.0292
 20
208.037
 30
0.0
 11
63.9794
 21
209.094
 31
0.0
  0
LINE
  8
0
 62
     0
 10
63.9794
 20
209.094
 30
0.0
 11
63.8997
 21
209.893
 31
0.0
  0
LINE
  8
0
 62
     0
 10
63.8997
 20
209.893
 30
0.0
 11
63.9025
 21
210.158
 31
0.0
  0
LINE
  8
0
 62
     0
 10
63.9025
 20
210.158
 30
0.0
 11
64.6451
 21
209.561
 31
0.0
  0
LINE
  8
0
 62
     0
 10
64.6451
 20
209.561
 30
0.0
 11
67.7347
 21
206.495
 31
0.0
  0
LINE
  8
0
 62
     0
 10
67.7347
 20
206.495
 30
0.0
 11
70.4935
 21
203.382
 31
0.0
  0
LINE
  8
0
 62
     0
 10
70.4935
 20
203.382
 30
0.0
 11
71.0724
 21
202.762
 31
0.0
  0
LINE
  8
0
 62
     0
 10
71.0724
 20
202.762
 30
0.0
 11
71.1881
 21
202.846
 31
0.0
  0
LINE
  8
0
 62
     0
 10
71.1881
 20
202.846
 30
0.0
 11
71.7268
 21
203.845
 31
0.0
  0
LINE
  8
0
 62
     0
 10
71.7268
 20
203.845
 30
0.0
 11
72.2119
 21
205.572
 31
0.0
  0
LINE
  8
0
 62
     0
 10
72.2119
 20
205.572
 30
0.0
 11
72.3029
 21
206.018
 31
0.0
  0
LINE
  8
0
 62
     0
 10
72.3029
 20
206.018
 30
0.0
 11
72.6528
 21
205.683
 31
0.0
  0
LINE
  8
0
 62
     0
 10
72.6528
 20
205.683
 30
0.0
 11
73.6604
 21
204.632
 31
0.0
  0
LINE
  8
0
 62
     0
 10
73.6604
 20
204.632
 30
0.0
 11
75.0464
 21
203.033
 31
0.0
  0
LINE
  8
0
 62
     0
 10
75.0464
 20
203.033
 30
0.0
 11
76.4191
 21
201.254
 31
0.0
  0
LINE
  8
0
 62
     0
 10
76.4191
 20
201.254
 30
0.0
 11
77.742
 21
199.324
 31
0.0
  0
LINE
  8
0
 62
     0
 10
77.742
 20
199.324
 30
0.0
 11
78.97
 21
197.272
 31
0.0
  0
LINE
  8
0
 62
     0
 10
78.97
 20
197.272
 30
0.0
 11
80.0668
 21
195.132
 31
0.0
  0
LINE
  8
0
 62
     0
 10
80.0668
 20
195.132
 30
0.0
 11
80.9914
 21
192.93
 31
0.0
  0
LINE
  8
0
 62
     0
 10
80.9914
 20
192.93
 30
0.0
 11
81.7012
 21
190.699
 31
0.0
  0
LINE
  8
0
 62
     0
 10
81.7012
 20
190.699
 30
0.0
 11
82.1588
 21
188.467
 31
0.0
  0
LINE
  8
0
 62
     0
 10
82.1588
 20
188.467
 30
0.0
 11
82.3214
 21
186.267
 31
0.0
  0
LINE
  8
0
 62
     0
 10
82.3214
 20
186.267
 30
0.0
 11
82.1503
 21
184.125
 31
0.0
  0
LINE
  8
0
 62
     0
 10
82.1503
 20
184.125
 30
0.0
 11
81.6074
 21
182.076
 31
0.0
  0
LINE
  8
0
 62
     0
 10
81.6074
 20
182.076
 30
0.0
 11
80.6468
 21
180.145
 31
0.0
  0
LINE
  8
0
 62
     0
 10
80.6468
 20
180.145
 30
0.0
 11
79.2318
 21
178.368
 31
0.0
  0
LINE
  8
0
 62
     0
 10
79.2318
 20
178.368
 30
0.0
 11
77.3232
 21
176.772
 31
0.0
  0
LINE
  8
0
 62
     0
 10
77.3232
 20
176.772
 30
0.0
 11
75.5138
 21
175.682
 31
0.0
  0
LINE
  8
0
 62
     0
 10
75.5138
 20
175.682
 30
0.0
 11
74.8799
 21
175.384
 31
0.0
  0
LINE
  8
0
 62
     0
 10
74.8799
 20
175.384
 30
0.0
 11
72.5551
 21
177.274
 31
0.0
  0
LINE
  8
0
 62
     0
 10
72.5551
 20
177.274
 30
0.0
 11
65.1676
 21
182.423
 31
0.0
  0
LINE
  8
0
 62
     0
 10
65.1676
 20
182.423
 30
0.0
 11
54.6308
 21
188.518
 31
0.0
  0
LINE
  8
0
 62
     0
 10
54.6308
 20
188.518
 30
0.0
 11
43.3433
 21
193.756
 31
0.0
  0
LINE
  8
0
 62
     0
 10
43.3433
 20
193.756
 30
0.0
 11
34.4069
 21
197.211
 31
0.0
  0
LINE
  8
0
 62
     0
 10
34.4069
 20
197.211
 30
0.0
 11
31.3834
 21
198.224
 31
0.0
  0
LINE
  8
0
 62
     0
 10
31.3834
 20
198.224
 30
0.0
 11
33.2645
 21
197.269
 31
0.0
  0
LINE
  8
0
 62
     0
 10
33.2645
 20
197.269
 30
0.0
 11
38.8648
 21
194.31
 31
0.0
  0
LINE
  8
0
 62
     0
 10
38.8648
 20
194.31
 30
0.0
 11
45.5595
 21
190.58
 31
0.0
  0
LINE
  8
0
 62
     0
 10
45.5595
 20
190.58
 30
0.0
 11
51.5041
 21
187.021
 31
0.0
  0
LINE
  8
0
 62
     0
 10
51.5041
 20
187.021
 30
0.0
 11
56.7394
 21
183.628
 31
0.0
  0
LINE
  8
0
 62
     0
 10
56.7394
 20
183.628
 30
0.0
 11
61.3047
 21
180.391
 31
0.0
  0
LINE
  8
0
 62
     0
 10
61.3047
 20
180.391
 30
0.0
 11
65.235
 21
177.3
 31
0.0
  0
LINE
  8
0
 62
     0
 10
65.235
 20
177.3
 30
0.0
 11
68.5698
 21
174.348
 31
0.0
  0
LINE
  8
0
 62
     0
 10
68.5698
 20
174.348
 30
0.0
 11
70.6822
 21
172.256
 31
0.0
  0
LINE
  8
0
 62
     0
 10
70.6822
 20
172.256
 30
0.0
 11
71.3493
 21
171.523
 31
0.0
  0
LINE
  8
0
 62
     0
 10
71.3493
 20
171.523
 30
0.0
 11
71.0516
 21
170.352
 31
0.0
  0
LINE
  8
0
 62
     0
 10
71.0516
 20
170.352
 30
0.0
 11
69.4323
 21
167.022
 31
0.0
  0
LINE
  8
0
 62
     0
 10
69.4323
 20
167.022
 30
0.0
 11
66.4626
 21
163.594
 31
0.0
  0
LINE
  8
0
 62
     0
 10
66.4626
 20
163.594
 30
0.0
 11
62.7408
 21
161.097
 31
0.0
  0
LINE
  8
0
 62
     0
 10
62.7408
 20
161.097
 30
0.0
 11
58.572
 21
159.396
 31
0.0
  0
LINE
  8
0
 62
     0
 10
58.572
 20
159.396
 30
0.0
 11
54.2548
 21
158.347
 31
0.0
  0
LINE
  8
0
 62
     0
 10
54.2548
 20
158.347
 30
0.0
 11
50.0959
 21
157.813
 31
0.0
  0
LINE
  8
0
 62
     0
 10
50.0959
 20
157.813
 30
0.0
 11
46.3945
 21
157.652
 31
0.0
  0
LINE
  8
0
 62
     0
 10
46.3945
 20
157.652
 30
0.0
 11
44.1897
 21
157.684
 31
0.0
  0
LINE
  8
0
 62
     0
 10
44.1897
 20
157.684
 30
0.0
 11
43.458
 21
157.723
 31
0.0
  0
LINE
  8
0
 62
     0
 10
43.458
 20
157.723
 30
0.0
 11
43.7003
 21
157.836
 31
0.0
  0
LINE
  8
0
 62
     0
 10
43.7003
 20
157.836
 30
0.0
 11
44.413
 21
158.213
 31
0.0
  0
LINE
  8
0
 62
     0
 10
44.413
 20
158.213
 30
0.0
 11
45.2395
 21
158.773
 31
0.0
  0
LINE
  8
0
 62
     0
 10
45.2395
 20
158.773
 30
0.0
 11
45.8886
 21
159.428
 31
0.0
  0
LINE
  8
0
 62
     0
 10
45.8886
 20
159.428
 30
0.0
 11
46.2414
 21
160.003
 31
0.0
  0
LINE
  8
0
 62
     0
 10
46.2414
 20
160.003
 30
0.0
 11
46.3144
 21
160.207
 31
0.0
  0
LINE
  8
0
 62
     0
 10
46.3144
 20
160.207
 30
0.0
 11
45.9274
 21
160.479
 31
0.0
  0
LINE
  8
0
 62
     0
 10
45.9274
 20
160.479
 30
0.0
 11
44.3893
 21
160.747
 31
0.0
  0
LINE
  8
0
 62
     0
 10
44.3893
 20
160.747
 30
0.0
 11
41.4542
 21
160.982
 31
0.0
  0
LINE
  8
0
 62
     0
 10
41.4542
 20
160.982
 30
0.0
 11
38.063
 21
161.423
 31
0.0
  0
LINE
  8
0
 62
     0
 10
38.063
 20
161.423
 30
0.0
 11
35.5272
 21
162.165
 31
0.0
  0
LINE
  8
0
 62
     0
 10
35.5272
 20
162.165
 30
0.0
 11
34.7762
 21
162.581
 31
0.0
  0
LINE
  8
0
 62
     0
 10
87.2324
 20
157.113
 30
0.0
 11
87.2324
 21
157.113
 31
0.0
  0
LINE
  8
0
 62
     0
 10
87.2324
 20
157.113
 30
0.0
 11
88.2191
 21
157.124
 31
0.0
  0
LINE
  8
0
 62
     0
 10
88.2191
 20
157.124
 30
0.0
 11
91.1835
 21
156.805
 31
0.0
  0
LINE
  8
0
 62
     0
 10
91.1835
 20
156.805
 30
0.0
 11
95.184
 21
155.864
 31
0.0
  0
LINE
  8
0
 62
     0
 10
95.184
 20
155.864
 30
0.0
 11
99.0589
 21
154.383
 31
0.0
  0
LINE
  8
0
 62
     0
 10
99.0589
 20
154.383
 30
0.0
 11
102.627
 21
152.459
 31
0.0
  0
LINE
  8
0
 62
     0
 10
102.627
 20
152.459
 30
0.0
 11
105.709
 21
150.192
 31
0.0
  0
LINE
  8
0
 62
     0
 10
105.709
 20
150.192
 30
0.0
 11
108.126
 21
147.677
 31
0.0
  0
LINE
  8
0
 62
     0
 10
108.126
 20
147.677
 30
0.0
 11
109.702
 21
145.008
 31
0.0
  0
LINE
  8
0
 62
     0
 10
109.702
 20
145.008
 30
0.0
 11
110.258
 21
142.966
 31
0.0
  0
LINE
  8
0
 62
     0
 10
110.258
 20
142.966
 30
0.0
 11
110.254
 21
142.285
 31
0.0
  0
LINE
  8
0
 62
     0
 10
110.254
 20
142.285
 30
0.0
 11
110.25
 21
141.702
 31
0.0
  0
LINE
  8
0
 62
     0
 10
110.25
 20
141.702
 30
0.0
 11
109.828
 21
139.952
 31
0.0
  0
LINE
  8
0
 62
     0
 10
109.828
 20
139.952
 30
0.0
 11
108.614
 21
137.781
 31
0.0
  0
LINE
  8
0
 62
     0
 10
108.614
 20
137.781
 30
0.0
 11
106.66
 21
135.818
 31
0.0
  0
LINE
  8
0
 62
     0
 10
106.66
 20
135.818
 30
0.0
 11
104.006
 21
134.112
 31
0.0
  0
LINE
  8
0
 62
     0
 10
104.006
 20
134.112
 30
0.0
 11
100.7
 21
132.711
 31
0.0
  0
LINE
  8
0
 62
     0
 10
100.7
 20
132.711
 30
0.0
 11
96.7864
 21
131.661
 31
0.0
  0
LINE
  8
0
 62
     0
 10
96.7864
 20
131.661
 30
0.0
 11
92.3064
 21
131.011
 31
0.0
  0
LINE
  8
0
 62
     0
 10
92.3064
 20
131.011
 30
0.0
 11
88.5596
 21
130.8
 31
0.0
  0
LINE
  8
0
 62
     0
 10
88.5596
 20
130.8
 30
0.0
 11
87.3111
 21
130.808
 31
0.0
  0
LINE
  8
0
 62
     0
 10
87.3111
 20
130.808
 30
0.0
 11
86.0806
 21
130.823
 31
0.0
  0
LINE
  8
0
 62
     0
 10
86.0806
 20
130.823
 30
0.0
 11
82.3958
 21
131.147
 31
0.0
  0
LINE
  8
0
 62
     0
 10
82.3958
 20
131.147
 30
0.0
 11
77.9568
 21
131.99
 31
0.0
  0
LINE
  8
0
 62
     0
 10
77.9568
 20
131.99
 30
0.0
 11
74.0488
 21
133.266
 31
0.0
  0
LINE
  8
0
 62
     0
 10
74.0488
 20
133.266
 30
0.0
 11
70.7291
 21
134.899
 31
0.0
  0
LINE
  8
0
 62
     0
 10
70.7291
 20
134.899
 30
0.0
 11
68.0515
 21
136.813
 31
0.0
  0
LINE
  8
0
 62
     0
 10
68.0515
 20
136.813
 30
0.0
 11
66.0728
 21
138.938
 31
0.0
  0
LINE
  8
0
 62
     0
 10
66.0728
 20
138.938
 30
0.0
 11
64.8504
 21
141.196
 31
0.0
  0
LINE
  8
0
 62
     0
 10
64.8504
 20
141.196
 30
0.0
 11
64.4356
 21
142.936
 31
0.0
  0
LINE
  8
0
 62
     0
 10
64.4356
 20
142.936
 30
0.0
 11
64.4384
 21
143.514
 31
0.0
  0
LINE
  8
0
 62
     0
 10
64.4384
 20
143.514
 30
0.0
 11
64.4398
 21
144.031
 31
0.0
  0
LINE
  8
0
 62
     0
 10
64.4398
 20
144.031
 30
0.0
 11
64.9482
 21
145.577
 31
0.0
  0
LINE
  8
0
 62
     0
 10
64.9482
 20
145.577
 30
0.0
 11
66.3758
 21
147.835
 31
0.0
  0
LINE
  8
0
 62
     0
 10
66.3758
 20
147.835
 30
0.0
 11
68.5987
 21
150.139
 31
0.0
  0
LINE
  8
0
 62
     0
 10
68.5987
 20
150.139
 30
0.0
 11
71.4887
 21
152.339
 31
0.0
  0
LINE
  8
0
 62
     0
 10
71.4887
 20
152.339
 30
0.0
 11
74.9212
 21
154.287
 31
0.0
  0
LINE
  8
0
 62
     0
 10
74.9212
 20
154.287
 30
0.0
 11
78.7728
 21
155.831
 31
0.0
  0
LINE
  8
0
 62
     0
 10
78.7728
 20
155.831
 30
0.0
 11
82.9179
 21
156.823
 31
0.0
  0
LINE
  8
0
 62
     0
 10
82.9179
 20
156.823
 30
0.0
 11
86.1565
 21
157.141
 31
0.0
  0
LINE
  8
0
 62
     0
 10
86.1565
 20
157.141
 30
0.0
 11
87.2324
 21
157.113
 31
0.0
  0
LINE
  8
0
 62
     0
 10
101.906
 20
206.019
 30
0.0
 11
101.997
 21
205.573
 31
0.0
  0
LINE
  8
0
 62
     0
 10
101.997
 20
205.573
 30
0.0
 11
102.482
 21
203.846
 31
0.0
  0
LINE
  8
0
 62
     0
 10
102.482
 20
203.846
 30
0.0
 11
103.021
 21
202.847
 31
0.0
  0
LINE
  8
0
 62
     0
 10
103.021
 20
202.847
 30
0.0
 11
103.138
 21
202.763
 31
0.0
  0
LINE
  8
0
 62
     0
 10
103.138
 20
202.763
 30
0.0
 11
103.714
 21
203.383
 31
0.0
  0
LINE
  8
0
 62
     0
 10
103.714
 20
203.383
 30
0.0
 11
106.473
 21
206.496
 31
0.0
  0
LINE
  8
0
 62
     0
 10
106.473
 20
206.496
 30
0.0
 11
109.564
 21
209.562
 31
0.0
  0
LINE
  8
0
 62
     0
 10
109.564
 20
209.562
 30
0.0
 11
110.308
 21
210.159
 31
0.0
  0
LINE
  8
0
 62
     0
 10
110.308
 20
210.159
 30
0.0
 11
110.309
 21
209.893
 31
0.0
  0
LINE
  8
0
 62
     0
 10
110.309
 20
209.893
 30
0.0
 11
110.228
 21
209.095
 31
0.0
  0
LINE
  8
0
 62
     0
 10
110.228
 20
209.095
 30
0.0
 11
110.178
 21
208.037
 31
0.0
  0
LINE
  8
0
 62
     0
 10
110.178
 20
208.037
 30
0.0
 11
110.458
 21
207.032
 31
0.0
  0
LINE
  8
0
 62
     0
 10
110.458
 20
207.032
 30
0.0
 11
111.106
 21
206.296
 31
0.0
  0
LINE
  8
0
 62
     0
 10
111.106
 20
206.296
 30
0.0
 11
111.372
 21
206.13
 31
0.0
  0
LINE
  8
0
 62
     0
 10
111.372
 20
206.13
 30
0.0
 11
111.77
 21
206.666
 31
0.0
  0
LINE
  8
0
 62
     0
 10
111.77
 20
206.666
 30
0.0
 11
114.199
 21
209.167
 31
0.0
  0
LINE
  8
0
 62
     0
 10
114.199
 20
209.167
 30
0.0
 11
117.264
 21
211.41
 31
0.0
  0
LINE
  8
0
 62
     0
 10
117.264
 20
211.41
 30
0.0
 11
117.979
 21
211.814
 31
0.0
  0
LINE
  8
0
 62
     0
 10
117.979
 20
211.814
 30
0.0
 11
117.865
 21
211.618
 31
0.0
  0
LINE
  8
0
 62
     0
 10
117.865
 20
211.618
 30
0.0
 11
117.574
 21
210.998
 31
0.0
  0
LINE
  8
0
 62
     0
 10
117.574
 20
210.998
 30
0.0
 11
117.373
 21
210.312
 31
0.0
  0
LINE
  8
0
 62
     0
 10
117.373
 20
210.312
 30
0.0
 11
117.337
 21
209.737
 31
0.0
  0
LINE
  8
0
 62
     0
 10
117.337
 20
209.737
 30
0.0
 11
117.437
 21
209.251
 31
0.0
  0
LINE
  8
0
 62
     0
 10
117.437
 20
209.251
 30
0.0
 11
117.635
 21
208.829
 31
0.0
  0
LINE
  8
0
 62
     0
 10
117.635
 20
208.829
 30
0.0
 11
117.898
 21
208.45
 31
0.0
  0
LINE
  8
0
 62
     0
 10
117.898
 20
208.45
 30
0.0
 11
118.191
 21
208.091
 31
0.0
  0
LINE
  8
0
 62
     0
 10
118.191
 20
208.091
 30
0.0
 11
118.413
 21
207.823
 31
0.0
  0
LINE
  8
0
 62
     0
 10
118.413
 20
207.823
 30
0.0
 11
118.484
 21
207.73
 31
0.0
  0
LINE
  8
0
 62
     0
 10
118.484
 20
207.73
 30
0.0
 11
118.894
 21
208.084
 31
0.0
  0
LINE
  8
0
 62
     0
 10
118.894
 20
208.084
 30
0.0
 11
120.135
 21
209.134
 31
0.0
  0
LINE
  8
0
 62
     0
 10
120.135
 20
209.134
 30
0.0
 11
121.936
 21
210.505
 31
0.0
  0
LINE
  8
0
 62
     0
 10
121.936
 20
210.505
 30
0.0
 11
124.084
 21
211.799
 31
0.0
  0
LINE
  8
0
 62
     0
 10
124.084
 20
211.799
 30
0.0
 11
126.085
 21
212.722
 31
0.0
  0
LINE
  8
0
 62
     0
 10
126.085
 20
212.722
 30
0.0
 11
126.774
 21
212.974
 31
0.0
  0
LINE
  8
0
 62
     0
 10
126.774
 20
212.974
 30
0.0
 11
126.563
 21
212.719
 31
0.0
  0
LINE
  8
0
 62
     0
 10
126.563
 20
212.719
 30
0.0
 11
125.921
 21
211.968
 31
0.0
  0
LINE
  8
0
 62
     0
 10
125.921
 20
211.968
 30
0.0
 11
125.243
 21
210.953
 31
0.0
  0
LINE
  8
0
 62
     0
 10
125.243
 20
210.953
 30
0.0
 11
125.078
 21
209.896
 31
0.0
  0
LINE
  8
0
 62
     0
 10
125.078
 20
209.896
 30
0.0
 11
125.535
 21
208.996
 31
0.0
  0
LINE
  8
0
 62
     0
 10
125.535
 20
208.996
 30
0.0
 11
125.765
 21
208.778
 31
0.0
  0
LINE
  8
0
 62
     0
 10
125.765
 20
208.778
 30
0.0
 11
126.195
 21
209.047
 31
0.0
  0
LINE
  8
0
 62
     0
 10
126.195
 20
209.047
 30
0.0
 11
127.502
 21
209.827
 31
0.0
  0
LINE
  8
0
 62
     0
 10
127.502
 20
209.827
 30
0.0
 11
129.533
 21
210.837
 31
0.0
  0
LINE
  8
0
 62
     0
 10
129.533
 20
210.837
 30
0.0
 11
132.144
 21
211.77
 31
0.0
  0
LINE
  8
0
 62
     0
 10
132.144
 20
211.77
 30
0.0
 11
134.745
 21
212.423
 31
0.0
  0
LINE
  8
0
 62
     0
 10
134.745
 20
212.423
 30
0.0
 11
135.622
 21
212.587
 31
0.0
  0
LINE
  8
0
 62
     0
 10
135.622
 20
212.587
 30
0.0
 11
135.504
 21
212.456
 31
0.0
  0
LINE
  8
0
 62
     0
 10
135.504
 20
212.456
 30
0.0
 11
135.121
 21
212.084
 31
0.0
  0
LINE
  8
0
 62
     0
 10
135.121
 20
212.084
 30
0.0
 11
134.56
 21
211.581
 31
0.0
  0
LINE
  8
0
 62
     0
 10
134.56
 20
211.581
 30
0.0
 11
134.003
 21
211.075
 31
0.0
  0
LINE
  8
0
 62
     0
 10
134.003
 20
211.075
 30
0.0
 11
133.511
 21
210.572
 31
0.0
  0
LINE
  8
0
 62
     0
 10
133.511
 20
210.572
 30
0.0
 11
133.148
 21
210.071
 31
0.0
  0
LINE
  8
0
 62
     0
 10
133.148
 20
210.071
 30
0.0
 11
132.973
 21
209.565
 31
0.0
  0
LINE
  8
0
 62
     0
 10
132.973
 20
209.565
 30
0.0
 11
133.048
 21
209.062
 31
0.0
  0
LINE
  8
0
 62
     0
 10
133.048
 20
209.062
 30
0.0
 11
133.321
 21
208.662
 31
0.0
  0
LINE
  8
0
 62
     0
 10
133.321
 20
208.662
 30
0.0
 11
133.438
 21
208.558
 31
0.0
  0
LINE
  8
0
 62
     0
 10
133.438
 20
208.558
 30
0.0
 11
134.142
 21
208.828
 31
0.0
  0
LINE
  8
0
 62
     0
 10
134.142
 20
208.828
 30
0.0
 11
137.904
 21
209.951
 31
0.0
  0
LINE
  8
0
 62
     0
 10
137.904
 20
209.951
 30
0.0
 11
141.982
 21
210.764
 31
0.0
  0
LINE
  8
0
 62
     0
 10
141.982
 20
210.764
 30
0.0
 11
142.846
 21
210.877
 31
0.0
  0
LINE
  8
0
 62
     0
 10
142.846
 20
210.877
 30
0.0
 11
142.551
 21
210.633
 31
0.0
  0
LINE
  8
0
 62
     0
 10
142.551
 20
210.633
 30
0.0
 11
141.694
 21
209.864
 31
0.0
  0
LINE
  8
0
 62
     0
 10
141.694
 20
209.864
 30
0.0
 11
140.875
 21
208.884
 31
0.0
  0
LINE
  8
0
 62
     0
 10
140.875
 20
208.884
 30
0.0
 11
140.623
 21
207.964
 31
0.0
  0
LINE
  8
0
 62
     0
 10
140.623
 20
207.964
 30
0.0
 11
140.979
 21
207.268
 31
0.0
  0
LINE
  8
0
 62
     0
 10
140.979
 20
207.268
 30
0.0
 11
141.166
 21
207.123
 31
0.0
  0
LINE
  8
0
 62
     0
 10
141.166
 20
207.123
 30
0.0
 11
141.778
 21
207.312
 31
0.0
  0
LINE
  8
0
 62
     0
 10
141.778
 20
207.312
 30
0.0
 11
143.629
 21
207.841
 31
0.0
  0
LINE
  8
0
 62
     0
 10
143.629
 20
207.841
 30
0.0
 11
146.403
 21
208.431
 31
0.0
  0
LINE
  8
0
 62
     0
 10
146.403
 20
208.431
 30
0.0
 11
149.372
 21
208.642
 31
0.0
  0
LINE
  8
0
 62
     0
 10
149.372
 20
208.642
 30
0.0
 11
151.686
 21
208.423
 31
0.0
  0
LINE
  8
0
 62
     0
 10
151.686
 20
208.423
 30
0.0
 11
152.425
 21
208.227
 31
0.0
  0
LINE
  8
0
 62
     0
 10
152.425
 20
208.227
 30
0.0
 11
149.847
 21
205.632
 31
0.0
  0
LINE
  8
0
 62
     0
 10
149.847
 20
205.632
 30
0.0
 11
149.847
 21
205.632
 31
0.0
  0
LINE
  8
0
 62
     0
 10
149.847
 20
205.632
 30
0.0
 11
150.732
 21
205.443
 31
0.0
  0
LINE
  8
0
 62
     0
 10
150.732
 20
205.443
 30
0.0
 11
153.274
 21
205.359
 31
0.0
  0
LINE
  8
0
 62
     0
 10
153.274
 20
205.359
 30
0.0
 11
156.649
 21
205.33
 31
0.0
  0
LINE
  8
0
 62
     0
 10
156.649
 20
205.33
 30
0.0
 11
159.191
 21
205.314
 31
0.0
  0
LINE
  8
0
 62
     0
 10
159.191
 20
205.314
 30
0.0
 11
160.04
 21
205.301
 31
0.0
  0
LINE
  8
0
 62
     0
 10
160.04
 20
205.301
 30
0.0
 11
159.753
 21
204.905
 31
0.0
  0
LINE
  8
0
 62
     0
 10
159.753
 20
204.905
 30
0.0
 11
158.905
 21
203.706
 31
0.0
  0
LINE
  8
0
 62
     0
 10
158.905
 20
203.706
 30
0.0
 11
157.821
 21
201.98
 31
0.0
  0
LINE
  8
0
 62
     0
 10
157.821
 20
201.98
 30
0.0
 11
156.854
 21
199.97
 31
0.0
  0
LINE
  8
0
 62
     0
 10
156.854
 20
199.97
 30
0.0
 11
156.218
 21
198.143
 31
0.0
  0
LINE
  8
0
 62
     0
 10
156.218
 20
198.143
 30
0.0
 11
156.066
 21
197.52
 31
0.0
  0
LINE
  8
0
 62
     0
 10
156.066
 20
197.52
 30
0.0
 11
156.162
 21
197.42
 31
0.0
  0
LINE
  8
0
 62
     0
 10
156.162
 20
197.42
 30
0.0
 11
156.656
 21
197.318
 31
0.0
  0
LINE
  8
0
 62
     0
 10
156.656
 20
197.318
 30
0.0
 11
157.701
 21
197.294
 31
0.0
  0
LINE
  8
0
 62
     0
 10
157.701
 20
197.294
 30
0.0
 11
159.035
 21
197.382
 31
0.0
  0
LINE
  8
0
 62
     0
 10
159.035
 20
197.382
 30
0.0
 11
160.125
 21
197.484
 31
0.0
  0
LINE
  8
0
 62
     0
 10
160.125
 20
197.484
 30
0.0
 11
160.489
 21
197.52
 31
0.0
  0
LINE
  8
0
 62
     0
 10
160.489
 20
197.52
 30
0.0
 11
160.155
 21
196.82
 31
0.0
  0
LINE
  8
0
 62
     0
 10
160.155
 20
196.82
 30
0.0
 11
158.78
 21
194.895
 31
0.0
  0
LINE
  8
0
 62
     0
 10
158.78
 20
194.895
 30
0.0
 11
156.907
 21
193.085
 31
0.0
  0
LINE
  8
0
 62
     0
 10
156.907
 20
193.085
 30
0.0
 11
155.257
 21
191.727
 31
0.0
  0
LINE
  8
0
 62
     0
 10
155.257
 20
191.727
 30
0.0
 11
154.379
 21
190.817
 31
0.0
  0
LINE
  8
0
 62
     0
 10
154.379
 20
190.817
 30
0.0
 11
154.216
 21
190.454
 31
0.0
  0
LINE
  8
0
 62
     0
 10
154.216
 20
190.454
 30
0.0
 11
154.433
 21
190.29
 31
0.0
  0
LINE
  8
0
 62
     0
 10
154.433
 20
190.29
 30
0.0
 11
155.214
 21
189.968
 31
0.0
  0
LINE
  8
0
 62
     0
 10
155.214
 20
189.968
 30
0.0
 11
156.361
 21
189.846
 31
0.0
  0
LINE
  8
0
 62
     0
 10
156.361
 20
189.846
 30
0.0
 11
157.624
 21
190.014
 31
0.0
  0
LINE
  8
0
 62
     0
 10
157.624
 20
190.014
 30
0.0
 11
158.645
 21
190.287
 31
0.0
  0
LINE
  8
0
 62
     0
 10
158.645
 20
190.287
 30
0.0
 11
158.978
 21
190.399
 31
0.0
  0
LINE
  8
0
 62
     0
 10
158.978
 20
190.399
 30
0.0
 11
158.712
 21
189.849
 31
0.0
  0
LINE
  8
0
 62
     0
 10
158.712
 20
189.849
 30
0.0
 11
157.638
 21
188.332
 31
0.0
  0
LINE
  8
0
 62
     0
 10
157.638
 20
188.332
 30
0.0
 11
155.914
 21
186.493
 31
0.0
  0
LINE
  8
0
 62
     0
 10
155.914
 20
186.493
 30
0.0
 11
154.014
 21
184.756
 31
0.0
  0
LINE
  8
0
 62
     0
 10
154.014
 20
184.756
 30
0.0
 11
152.594
 21
183.458
 31
0.0
  0
LINE
  8
0
 62
     0
 10
152.594
 20
183.458
 30
0.0
 11
152.145
 21
183.002
 31
0.0
  0
LINE
  8
0
 62
     0
 10
152.145
 20
183.002
 30
0.0
 11
152.269
 21
182.915
 31
0.0
  0
LINE
  8
0
 62
     0
 10
152.269
 20
182.915
 30
0.0
 11
152.695
 21
182.721
 31
0.0
  0
LINE
  8
0
 62
     0
 10
152.695
 20
182.721
 30
0.0
 11
153.508
 21
182.539
 31
0.0
  0
LINE
  8
0
 62
     0
 10
153.508
 20
182.539
 30
0.0
 11
154.675
 21
182.492
 31
0.0
  0
LINE
  8
0
 62
     0
 10
154.675
 20
182.492
 30
0.0
 11
155.887
 21
182.57
 31
0.0
  0
LINE
  8
0
 62
     0
 10
155.887
 20
182.57
 30
0.0
 11
156.289
 21
182.616
 31
0.0
  0
LINE
  8
0
 62
     0
 10
156.289
 20
182.616
 30
0.0
 11
155.738
 21
182.032
 31
0.0
  0
LINE
  8
0
 62
     0
 10
155.738
 20
182.032
 30
0.0
 11
152.64
 21
179.259
 31
0.0
  0
LINE
  8
0
 62
     0
 10
152.64
 20
179.259
 30
0.0
 11
149.067
 21
176.695
 31
0.0
  0
LINE
  8
0
 62
     0
 10
149.067
 20
176.695
 30
0.0
 11
148.28
 21
176.214
 31
0.0
  0
LINE
  8
0
 62
     0
 10
148.28
 20
176.214
 30
0.0
 11
148.393
 21
176.082
 31
0.0
  0
LINE
  8
0
 62
     0
 10
148.393
 20
176.082
 30
0.0
 11
148.93
 21
175.846
 31
0.0
  0
LINE
  8
0
 62
     0
 10
148.93
 20
175.846
 30
0.0
 11
149.949
 21
175.659
 31
0.0
  0
LINE
  8
0
 62
     0
 10
149.949
 20
175.659
 30
0.0
 11
151.198
 21
175.584
 31
0.0
  0
LINE
  8
0
 62
     0
 10
151.198
 20
175.584
 30
0.0
 11
152.2
 21
175.559
 31
0.0
  0
LINE
  8
0
 62
     0
 10
152.2
 20
175.559
 30
0.0
 11
152.535
 21
175.552
 31
0.0
  0
LINE
  8
0
 62
     0
 10
152.535
 20
175.552
 30
0.0
 11
152.01
 21
175.04
 31
0.0
  0
LINE
  8
0
 62
     0
 10
152.01
 20
175.04
 30
0.0
 11
150.257
 21
173.681
 31
0.0
  0
LINE
  8
0
 62
     0
 10
150.257
 20
173.681
 30
0.0
 11
147.773
 21
172.154
 31
0.0
  0
LINE
  8
0
 62
     0
 10
147.773
 20
172.154
 30
0.0
 11
145.175
 21
170.808
 31
0.0
  0
LINE
  8
0
 62
     0
 10
145.175
 20
170.808
 30
0.0
 11
143.211
 21
169.824
 31
0.0
  0
LINE
  8
0
 62
     0
 10
143.211
 20
169.824
 30
0.0
 11
142.566
 21
169.481
 31
0.0
  0
LINE
  8
0
 62
     0
 10
142.566
 20
169.481
 30
0.0
 11
142.846
 21
169.291
 31
0.0
  0
LINE
  8
0
 62
     0
 10
142.846
 20
169.291
 30
0.0
 11
143.769
 21
168.847
 31
0.0
  0
LINE
  8
0
 62
     0
 10
143.769
 20
168.847
 30
0.0
 11
144.846
 21
168.595
 31
0.0
  0
LINE
  8
0
 62
     0
 10
144.846
 20
168.595
 30
0.0
 11
145.845
 21
168.566
 31
0.0
  0
LINE
  8
0
 62
     0
 10
145.845
 20
168.566
 30
0.0
 11
146.578
 21
168.595
 31
0.0
  0
LINE
  8
0
 62
     0
 10
146.578
 20
168.595
 30
0.0
 11
146.823
 21
168.597
 31
0.0
  0
LINE
  8
0
 62
     0
 10
146.823
 20
168.597
 30
0.0
 11
146.344
 21
168.205
 31
0.0
  0
LINE
  8
0
 62
     0
 10
146.344
 20
168.205
 30
0.0
 11
144.709
 21
167.259
 31
0.0
  0
LINE
  8
0
 62
     0
 10
144.709
 20
167.259
 30
0.0
 11
142.143
 21
166.175
 31
0.0
  0
LINE
  8
0
 62
     0
 10
142.143
 20
166.175
 30
0.0
 11
139.313
 21
165.24
 31
0.0
  0
LINE
  8
0
 62
     0
 10
139.313
 20
165.24
 30
0.0
 11
137.13
 21
164.576
 31
0.0
  0
LINE
  8
0
 62
     0
 10
137.13
 20
164.576
 30
0.0
 11
136.405
 21
164.348
 31
0.0
  0
LINE
  8
0
 62
     0
 10
136.405
 20
164.348
 30
0.0
 11
136.528
 21
164.159
 31
0.0
  0
LINE
  8
0
 62
     0
 10
136.528
 20
164.159
 30
0.0
 11
136.966
 21
163.638
 31
0.0
  0
LINE
  8
0
 62
     0
 10
136.966
 20
163.638
 30
0.0
 11
137.606
 21
163.158
 31
0.0
  0
LINE
  8
0
 62
     0
 10
137.606
 20
163.158
 30
0.0
 11
138.402
 21
162.833
 31
0.0
  0
LINE
  8
0
 62
     0
 10
138.402
 20
162.833
 30
0.0
 11
139.172
 21
162.635
 31
0.0
  0
LINE
  8
0
 62
     0
 10
139.172
 20
162.635
 30
0.0
 11
139.43
 21
162.581
 31
0.0
  0
LINE
  8
0
 62
     0
 10
139.43
 20
162.581
 30
0.0
 11
138.679
 21
162.165
 31
0.0
  0
LINE
  8
0
 62
     0
 10
138.679
 20
162.165
 30
0.0
 11
136.142
 21
161.423
 31
0.0
  0
LINE
  8
0
 62
     0
 10
136.142
 20
161.423
 30
0.0
 11
132.753
 21
160.982
 31
0.0
  0
LINE
  8
0
 62
     0
 10
132.753
 20
160.982
 30
0.0
 11
129.817
 21
160.747
 31
0.0
  0
LINE
  8
0
 62
     0
 10
129.817
 20
160.747
 30
0.0
 11
128.279
 21
160.477
 31
0.0
  0
LINE
  8
0
 62
     0
 10
128.279
 20
160.477
 30
0.0
 11
127.893
 21
160.207
 31
0.0
  0
LINE
  8
0
 62
     0
 10
127.893
 20
160.207
 30
0.0
 11
127.964
 21
160.003
 31
0.0
  0
LINE
  8
0
 62
     0
 10
127.964
 20
160.003
 30
0.0
 11
128.317
 21
159.428
 31
0.0
  0
LINE
  8
0
 62
     0
 10
128.317
 20
159.428
 30
0.0
 11
128.965
 21
158.773
 31
0.0
  0
LINE
  8
0
 62
     0
 10
128.965
 20
158.773
 30
0.0
 11
129.792
 21
158.213
 31
0.0
  0
LINE
  8
0
 62
     0
 10
129.792
 20
158.213
 30
0.0
 11
130.504
 21
157.836
 31
0.0
  0
LINE
  8
0
 62
     0
 10
130.504
 20
157.836
 30
0.0
 11
130.748
 21
157.723
 31
0.0
  0
LINE
  8
0
 62
     0
 10
130.748
 20
157.723
 30
0.0
 11
130.017
 21
157.684
 31
0.0
  0
LINE
  8
0
 62
     0
 10
130.017
 20
157.684
 30
0.0
 11
127.81
 21
157.652
 31
0.0
  0
LINE
  8
0
 62
     0
 10
127.81
 20
157.652
 30
0.0
 11
124.11
 21
157.813
 31
0.0
  0
LINE
  8
0
 62
     0
 10
124.11
 20
157.813
 30
0.0
 11
119.95
 21
158.347
 31
0.0
  0
LINE
  8
0
 62
     0
 10
119.95
 20
158.347
 30
0.0
 11
115.635
 21
159.396
 31
0.0
  0
LINE
  8
0
 62
     0
 10
115.635
 20
159.396
 30
0.0
 11
111.464
 21
161.097
 31
0.0
  0
LINE
  8
0
 62
     0
 10
111.464
 20
161.097
 30
0.0
 11
107.743
 21
163.594
 31
0.0
  0
LINE
  8
0
 62
     0
 10
107.743
 20
163.594
 30
0.0
 11
104.774
 21
167.022
 31
0.0
  0
LINE
  8
0
 62
     0
 10
104.774
 20
167.022
 30
0.0
 11
103.153
 21
170.353
 31
0.0
  0
LINE
  8
0
 62
     0
 10
103.153
 20
170.353
 30
0.0
 11
102.858
 21
171.523
 31
0.0
  0
LINE
  8
0
 62
     0
 10
102.858
 20
171.523
 30
0.0
 11
103.524
 21
172.256
 31
0.0
  0
LINE
  8
0
 62
     0
 10
103.524
 20
172.256
 30
0.0
 11
105.636
 21
174.349
 31
0.0
  0
LINE
  8
0
 62
     0
 10
105.636
 20
174.349
 30
0.0
 11
108.972
 21
177.303
 31
0.0
  0
LINE
  8
0
 62
     0
 10
108.972
 20
177.303
 30
0.0
 11
112.905
 21
180.394
 31
0.0
  0
LINE
  8
0
 62
     0
 10
112.905
 20
180.394
 30
0.0
 11
117.471
 21
183.633
 31
0.0
  0
LINE
  8
0
 62
     0
 10
117.471
 20
183.633
 30
0.0
 11
122.709
 21
187.027
 31
0.0
  0
LINE
  8
0
 62
     0
 10
122.709
 20
187.027
 30
0.0
 11
128.658
 21
190.585
 31
0.0
  0
LINE
  8
0
 62
     0
 10
128.658
 20
190.585
 30
0.0
 11
135.355
 21
194.318
 31
0.0
  0
LINE
  8
0
 62
     0
 10
135.355
 20
194.318
 30
0.0
 11
140.958
 21
197.279
 31
0.0
  0
LINE
  8
0
 62
     0
 10
140.958
 20
197.279
 30
0.0
 11
142.842
 21
198.235
 31
0.0
  0
LINE
  8
0
 62
     0
 10
142.842
 20
198.235
 30
0.0
 11
139.814
 21
197.221
 31
0.0
  0
LINE
  8
0
 62
     0
 10
139.814
 20
197.221
 30
0.0
 11
130.872
 21
193.766
 31
0.0
  0
LINE
  8
0
 62
     0
 10
130.872
 20
193.766
 30
0.0
 11
119.582
 21
188.527
 31
0.0
  0
LINE
  8
0
 62
     0
 10
119.582
 20
188.527
 30
0.0
 11
109.041
 21
182.43
 31
0.0
  0
LINE
  8
0
 62
     0
 10
109.041
 20
182.43
 30
0.0
 11
101.652
 21
177.276
 31
0.0
  0
LINE
  8
0
 62
     0
 10
101.652
 20
177.276
 30
0.0
 11
99.3302
 21
175.387
 31
0.0
  0
LINE
  8
0
 62
     0
 10
99.3302
 20
175.387
 30
0.0
 11
98.6952
 21
175.683
 31
0.0
  0
LINE
  8
0
 62
     0
 10
98.6952
 20
175.683
 30
0.0
 11
96.8858
 21
176.773
 31
0.0
  0
LINE
  8
0
 62
     0
 10
96.8858
 20
176.773
 30
0.0
 11
94.9745
 21
178.369
 31
0.0
  0
LINE
  8
0
 62
     0
 10
94.9745
 20
178.369
 30
0.0
 11
93.5605
 21
180.147
 31
0.0
  0
LINE
  8
0
 62
     0
 10
93.5605
 20
180.147
 30
0.0
 11
92.6013
 21
182.076
 31
0.0
  0
LINE
  8
0
 62
     0
 10
92.6013
 20
182.076
 30
0.0
 11
92.0556
 21
184.127
 31
0.0
  0
LINE
  8
0
 62
     0
 10
92.0556
 20
184.127
 30
0.0
 11
91.8849
 21
186.268
 31
0.0
  0
LINE
  8
0
 62
     0
 10
91.8849
 20
186.268
 30
0.0
 11
92.0489
 21
188.469
 31
0.0
  0
LINE
  8
0
 62
     0
 10
92.0489
 20
188.469
 30
0.0
 11
92.5064
 21
190.7
 31
0.0
  0
LINE
  8
0
 62
     0
 10
92.5064
 20
190.7
 30
0.0
 11
93.2159
 21
192.932
 31
0.0
  0
LINE
  8
0
 62
     0
 10
93.2159
 20
192.932
 30
0.0
 11
94.1405
 21
195.134
 31
0.0
  0
LINE
  8
0
 62
     0
 10
94.1405
 20
195.134
 30
0.0
 11
95.2362
 21
197.276
 31
0.0
  0
LINE
  8
0
 62
     0
 10
95.2362
 20
197.276
 30
0.0
 11
96.4667
 21
199.327
 31
0.0
  0
LINE
  8
0
 62
     0
 10
96.4667
 20
199.327
 30
0.0
 11
97.7882
 21
201.255
 31
0.0
  0
LINE
  8
0
 62
     0
 10
97.7882
 20
201.255
 30
0.0
 11
99.1623
 21
203.035
 31
0.0
  0
LINE
  8
0
 62
     0
 10
99.1623
 20
203.035
 30
0.0
 11
100.547
 21
204.633
 31
0.0
  0
LINE
  8
0
 62
     0
 10
100.547
 20
204.633
 30
0.0
 11
101.556
 21
205.685
 31
0.0
  0
LINE
  8
0
 62
     0
 10
101.556
 20
205.685
 30
0.0
 11
101.906
 21
206.019
 31
0.0
  0
LINE
  8
0
 62
     0
 10
130.863
 20
82.9525
 30
0.0
 11
129.908
 21
82.3366
 31
0.0
  0
LINE
  8
0
 62
     0
 10
129.908
 20
82.3366
 30
0.0
 11
126.752
 21
80.9364
 31
0.0
  0
LINE
  8
0
 62
     0
 10
126.752
 20
80.9364
 30
0.0
 11
122.344
 21
79.9222
 31
0.0
  0
LINE
  8
0
 62
     0
 10
122.344
 20
79.9222
 30
0.0
 11
117.774
 21
79.8696
 31
0.0
  0
LINE
  8
0
 62
     0
 10
117.774
 20
79.8696
 30
0.0
 11
113.18
 21
80.742
 31
0.0
  0
LINE
  8
0
 62
     0
 10
113.18
 20
80.742
 30
0.0
 11
108.693
 21
82.4978
 31
0.0
  0
LINE
  8
0
 62
     0
 10
108.693
 20
82.4978
 30
0.0
 11
104.45
 21
85.0981
 31
0.0
  0
LINE
  8
0
 62
     0
 10
104.45
 20
85.0981
 30
0.0
 11
100.587
 21
88.5045
 31
0.0
  0
LINE
  8
0
 62
     0
 10
100.587
 20
88.5045
 30
0.0
 11
97.9784
 21
91.5691
 31
0.0
  0
LINE
  8
0
 62
     0
 10
97.9784
 20
91.5691
 30
0.0
 11
97.2386
 21
92.6758
 31
0.0
  0
LINE
  8
0
 62
     0
 10
97.2386
 20
92.6758
 30
0.0
 11
96.4971
 21
93.7796
 31
0.0
  0
LINE
  8
0
 62
     0
 10
96.4971
 20
93.7796
 30
0.0
 11
94.6573
 21
97.3459
 31
0.0
  0
LINE
  8
0
 62
     0
 10
94.6573
 20
97.3459
 30
0.0
 11
92.9982
 21
102.175
 31
0.0
  0
LINE
  8
0
 62
     0
 10
92.9982
 20
102.175
 30
0.0
 11
92.2433
 21
107.028
 31
0.0
  0
LINE
  8
0
 62
     0
 10
92.2433
 20
107.028
 30
0.0
 11
92.3756
 21
111.766
 31
0.0
  0
LINE
  8
0
 62
     0
 10
92.3756
 20
111.766
 30
0.0
 11
93.3799
 21
116.251
 31
0.0
  0
LINE
  8
0
 62
     0
 10
93.3799
 20
116.251
 30
0.0
 11
95.2362
 21
120.349
 31
0.0
  0
LINE
  8
0
 62
     0
 10
95.2362
 20
120.349
 30
0.0
 11
97.9318
 21
123.919
 31
0.0
  0
LINE
  8
0
 62
     0
 10
97.9318
 20
123.919
 30
0.0
 11
100.493
 21
126.213
 31
0.0
  0
LINE
  8
0
 62
     0
 10
100.493
 20
126.213
 30
0.0
 11
101.446
 21
126.826
 31
0.0
  0
LINE
  8
0
 62
     0
 10
101.446
 20
126.826
 30
0.0
 11
102.399
 21
127.444
 31
0.0
  0
LINE
  8
0
 62
     0
 10
102.399
 20
127.444
 30
0.0
 11
105.555
 21
128.843
 31
0.0
  0
LINE
  8
0
 62
     0
 10
105.555
 20
128.843
 30
0.0
 11
109.963
 21
129.857
 31
0.0
  0
LINE
  8
0
 62
     0
 10
109.963
 20
129.857
 30
0.0
 11
114.531
 21
129.91
 31
0.0
  0
LINE
  8
0
 62
     0
 10
114.531
 20
129.91
 30
0.0
 11
119.127
 21
129.039
 31
0.0
  0
LINE
  8
0
 62
     0
 10
119.127
 20
129.039
 30
0.0
 11
123.615
 21
127.283
 31
0.0
  0
LINE
  8
0
 62
     0
 10
123.615
 20
127.283
 30
0.0
 11
127.857
 21
124.684
 31
0.0
  0
LINE
  8
0
 62
     0
 10
127.857
 20
124.684
 30
0.0
 11
131.72
 21
121.275
 31
0.0
  0
LINE
  8
0
 62
     0
 10
131.72
 20
121.275
 30
0.0
 11
134.327
 21
118.211
 31
0.0
  0
LINE
  8
0
 62
     0
 10
134.327
 20
118.211
 30
0.0
 11
135.07
 21
117.103
 31
0.0
  0
LINE
  8
0
 62
     0
 10
135.07
 20
117.103
 30
0.0
 11
135.81
 21
116
 31
0.0
  0
LINE
  8
0
 62
     0
 10
135.81
 20
116
 30
0.0
 11
137.65
 21
112.436
 31
0.0
  0
LINE
  8
0
 62
     0
 10
137.65
 20
112.436
 30
0.0
 11
139.309
 21
107.604
 31
0.0
  0
LINE
  8
0
 62
     0
 10
139.309
 20
107.604
 30
0.0
 11
140.062
 21
102.752
 31
0.0
  0
LINE
  8
0
 62
     0
 10
140.062
 20
102.752
 30
0.0
 11
139.929
 21
98.0144
 31
0.0
  0
LINE
  8
0
 62
     0
 10
139.929
 20
98.0144
 30
0.0
 11
138.927
 21
93.5274
 31
0.0
  0
LINE
  8
0
 62
     0
 10
138.927
 20
93.5274
 30
0.0
 11
137.071
 21
89.4306
 31
0.0
  0
LINE
  8
0
 62
     0
 10
137.071
 20
89.4306
 30
0.0
 11
134.375
 21
85.8601
 31
0.0
  0
LINE
  8
0
 62
     0
 10
134.375
 20
85.8601
 30
0.0
 11
131.814
 21
83.5671
 31
0.0
  0
LINE
  8
0
 62
     0
 10
131.814
 20
83.5671
 30
0.0
 11
130.863
 21
82.9525
 31
0.0
  0
LINE
  8
0
 62
     0
 10
149.204
 20
122.691
 30
0.0
 11
149.182
 21
122.432
 31
0.0
  0
LINE
  8
0
 62
     0
 10
149.182
 20
122.432
 30
0.0
 11
148.626
 21
121.69
 31
0.0
  0
LINE
  8
0
 62
     0
 10
148.626
 20
121.69
 30
0.0
 11
147.22
 21
121.599
 31
0.0
  0
LINE
  8
0
 62
     0
 10
147.22
 20
121.599
 30
0.0
 11
145.12
 21
122.302
 31
0.0
  0
LINE
  8
0
 62
     0
 10
145.12
 20
122.302
 30
0.0
 11
142.453
 21
123.687
 31
0.0
  0
LINE
  8
0
 62
     0
 10
142.453
 20
123.687
 30
0.0
 11
139.355
 21
125.637
 31
0.0
  0
LINE
  8
0
 62
     0
 10
139.355
 20
125.637
 30
0.0
 11
135.953
 21
128.038
 31
0.0
  0
LINE
  8
0
 62
     0
 10
135.953
 20
128.038
 30
0.0
 11
132.383
 21
130.776
 31
0.0
  0
LINE
  8
0
 62
     0
 10
132.383
 20
130.776
 30
0.0
 11
128.77
 21
133.736
 31
0.0
  0
LINE
  8
0
 62
     0
 10
128.77
 20
133.736
 30
0.0
 11
125.248
 21
136.805
 31
0.0
  0
LINE
  8
0
 62
     0
 10
125.248
 20
136.805
 30
0.0
 11
121.952
 21
139.864
 31
0.0
  0
LINE
  8
0
 62
     0
 10
121.952
 20
139.864
 30
0.0
 11
119.009
 21
142.803
 31
0.0
  0
LINE
  8
0
 62
     0
 10
119.009
 20
142.803
 30
0.0
 11
116.55
 21
145.504
 31
0.0
  0
LINE
  8
0
 62
     0
 10
116.55
 20
145.504
 30
0.0
 11
114.709
 21
147.855
 31
0.0
  0
LINE
  8
0
 62
     0
 10
114.709
 20
147.855
 30
0.0
 11
113.614
 21
149.74
 31
0.0
  0
LINE
  8
0
 62
     0
 10
113.614
 20
149.74
 30
0.0
 11
113.399
 21
151.044
 31
0.0
  0
LINE
  8
0
 62
     0
 10
113.399
 20
151.044
 30
0.0
 11
113.978
 21
151.616
 31
0.0
  0
LINE
  8
0
 62
     0
 10
113.978
 20
151.616
 30
0.0
 11
114.195
 21
151.652
 31
0.0
  0
LINE
  8
0
 62
     0
 10
114.195
 20
151.652
 30
0.0
 11
115.09
 21
151.801
 31
0.0
  0
LINE
  8
0
 62
     0
 10
115.09
 20
151.801
 30
0.0
 11
117.803
 21
152.09
 31
0.0
  0
LINE
  8
0
 62
     0
 10
117.803
 20
152.09
 30
0.0
 11
121.314
 21
152.19
 31
0.0
  0
LINE
  8
0
 62
     0
 10
121.314
 20
152.19
 30
0.0
 11
124.71
 21
151.965
 31
0.0
  0
LINE
  8
0
 62
     0
 10
124.71
 20
151.965
 30
0.0
 11
127.969
 21
151.419
 31
0.0
  0
LINE
  8
0
 62
     0
 10
127.969
 20
151.419
 30
0.0
 11
131.071
 21
150.56
 31
0.0
  0
LINE
  8
0
 62
     0
 10
131.071
 20
150.56
 30
0.0
 11
133.999
 21
149.397
 31
0.0
  0
LINE
  8
0
 62
     0
 10
133.999
 20
149.397
 30
0.0
 11
136.729
 21
147.937
 31
0.0
  0
LINE
  8
0
 62
     0
 10
136.729
 20
147.937
 30
0.0
 11
139.242
 21
146.187
 31
0.0
  0
LINE
  8
0
 62
     0
 10
139.242
 20
146.187
 30
0.0
 11
141.523
 21
144.157
 31
0.0
  0
LINE
  8
0
 62
     0
 10
141.523
 20
144.157
 30
0.0
 11
143.546
 21
141.851
 31
0.0
  0
LINE
  8
0
 62
     0
 10
143.546
 20
141.851
 30
0.0
 11
145.295
 21
139.28
 31
0.0
  0
LINE
  8
0
 62
     0
 10
145.295
 20
139.28
 30
0.0
 11
146.746
 21
136.449
 31
0.0
  0
LINE
  8
0
 62
     0
 10
146.746
 20
136.449
 30
0.0
 11
147.883
 21
133.368
 31
0.0
  0
LINE
  8
0
 62
     0
 10
147.883
 20
133.368
 30
0.0
 11
148.685
 21
130.041
 31
0.0
  0
LINE
  8
0
 62
     0
 10
148.685
 20
130.041
 30
0.0
 11
149.131
 21
126.482
 31
0.0
  0
LINE
  8
0
 62
     0
 10
149.131
 20
126.482
 30
0.0
 11
149.233
 21
123.639
 31
0.0
  0
LINE
  8
0
 62
     0
 10
149.233
 20
123.639
 30
0.0
 11
149.204
 21
122.691
 31
0.0
  0
ENDSEC
  0
EOF
